<svg width="794" height="128" viewBox="0 0 794 128" fill="none" xmlns="http://www.w3.org/2000/svg">
<path d="M18.7045 109.463V108.324H27.0175V109.463H23.218L23.5155 109.157V119H22.1895V109.157L22.487 109.463H18.7045ZM34.6161 119V114.223C34.6161 113.447 34.4291 112.857 34.0551 112.455C33.6868 112.047 33.1825 111.843 32.5421 111.843C32.0548 111.843 31.6326 111.976 31.2756 112.242C30.9186 112.509 30.6438 112.891 30.4511 113.39C30.2585 113.883 30.1621 114.472 30.1621 115.158H29.6521C29.6521 114.212 29.7768 113.404 30.0261 112.735C30.2755 112.067 30.6381 111.557 31.1141 111.205C31.5958 110.848 32.1795 110.67 32.8651 110.67C33.5055 110.67 34.0523 110.814 34.5056 111.103C34.9646 111.387 35.316 111.795 35.5596 112.327C35.8033 112.86 35.9251 113.492 35.9251 114.223V119H34.6161ZM28.8361 119V107.406H30.1621V119H28.8361ZM41.9179 119.204C41.2152 119.204 40.5862 119.025 40.0309 118.668C39.4812 118.306 39.0449 117.804 38.7219 117.164C38.4046 116.524 38.2459 115.787 38.2459 114.954C38.2459 114.064 38.4046 113.299 38.7219 112.659C39.0392 112.019 39.4727 111.528 40.0224 111.188C40.5777 110.843 41.2096 110.67 41.9179 110.67C42.5356 110.67 43.0626 110.795 43.4989 111.044C43.9352 111.293 44.2866 111.63 44.5529 112.055C44.8192 112.48 45.0034 112.962 45.1054 113.5C45.2131 114.033 45.2442 114.586 45.1989 115.158H39.3169V114.342H44.3234L43.9324 114.597C43.9494 114.263 43.9296 113.928 43.8729 113.594C43.8219 113.26 43.7227 112.954 43.5754 112.676C43.4281 112.393 43.2212 112.166 42.9549 111.996C42.6886 111.826 42.3486 111.741 41.9349 111.741C41.4136 111.741 40.9772 111.874 40.6259 112.14C40.2746 112.407 40.0111 112.758 39.8354 113.194C39.6597 113.625 39.5719 114.093 39.5719 114.597V115.141C39.5719 115.708 39.6569 116.215 39.8269 116.662C40.0026 117.11 40.2632 117.464 40.6089 117.725C40.9546 117.986 41.3909 118.116 41.9179 118.116C42.4449 118.116 42.8784 117.988 43.2184 117.733C43.5584 117.478 43.7652 117.102 43.8389 116.603H45.2159C45.1309 117.141 44.9382 117.606 44.6379 117.997C44.3376 118.382 43.9551 118.68 43.4904 118.889C43.0257 119.099 42.5016 119.204 41.9179 119.204ZM63.2865 119V114.223C63.2865 113.447 63.0995 112.857 62.7255 112.455C62.3572 112.047 61.8585 111.843 61.2295 111.843C60.4928 111.843 59.929 112.129 59.538 112.701C59.147 113.268 58.9515 114.053 58.9515 115.056H58.3395C58.3395 114.325 58.4103 113.685 58.552 113.135C58.6993 112.585 58.9118 112.129 59.1895 111.766C59.4672 111.398 59.8043 111.123 60.201 110.942C60.5977 110.761 61.0482 110.67 61.5525 110.67C62.1928 110.67 62.7397 110.814 63.193 111.103C63.652 111.387 64.0033 111.795 64.247 112.327C64.4907 112.86 64.6125 113.492 64.6125 114.223V119H63.2865ZM51.8625 119V110.874H53.0015L53.1545 112.506C53.4095 111.917 53.7665 111.463 54.2255 111.146C54.6902 110.829 55.2455 110.67 55.8915 110.67C56.5318 110.67 57.0787 110.814 57.532 111.103C57.991 111.387 58.3423 111.795 58.586 112.327C58.8297 112.86 58.9515 113.492 58.9515 114.223V119H57.6425V114.223C57.6425 113.447 57.4555 112.857 57.0815 112.455C56.7132 112.047 56.2088 111.843 55.5685 111.843C55.0812 111.843 54.659 111.976 54.302 112.242C53.945 112.509 53.6702 112.891 53.4775 113.39C53.2848 113.883 53.1885 114.472 53.1885 115.158V119H51.8625ZM70.7078 119.204C69.9768 119.204 69.3251 119.043 68.7528 118.72C68.1861 118.396 67.7385 117.918 67.4098 117.283C67.0811 116.648 66.9168 115.866 66.9168 114.937C66.9168 114.002 67.0811 113.22 67.4098 112.591C67.7385 111.956 68.1861 111.477 68.7528 111.154C69.3251 110.831 69.9768 110.67 70.7078 110.67C71.4331 110.67 72.0791 110.831 72.6458 111.154C73.2181 111.477 73.6658 111.956 73.9888 112.591C74.3175 113.22 74.4818 114.002 74.4818 114.937C74.4818 115.866 74.3175 116.648 73.9888 117.283C73.6658 117.918 73.2181 118.396 72.6458 118.72C72.0791 119.043 71.4331 119.204 70.7078 119.204ZM70.6738 118.048C71.2008 118.048 71.6485 117.923 72.0168 117.674C72.3851 117.419 72.6628 117.059 72.8498 116.594C73.0425 116.13 73.1388 115.577 73.1388 114.937C73.1388 113.968 72.9376 113.206 72.5353 112.65C72.133 112.089 71.5351 111.809 70.7418 111.809C70.2091 111.809 69.7586 111.936 69.3903 112.191C69.0276 112.441 68.75 112.801 68.5573 113.271C68.3703 113.736 68.2768 114.291 68.2768 114.937C68.2768 115.895 68.478 116.654 68.8803 117.215C69.2883 117.77 69.8861 118.048 70.6738 118.048ZM79.9877 119.204C79.2 119.204 78.5427 119.093 78.0157 118.872C77.4887 118.646 77.0892 118.337 76.8172 117.946C76.5452 117.549 76.4007 117.096 76.3837 116.586H77.6587C77.687 117.102 77.8938 117.49 78.2792 117.751C78.6702 118.005 79.2 118.133 79.8687 118.133C80.22 118.133 80.543 118.076 80.8377 117.963C81.1323 117.85 81.3675 117.694 81.5432 117.495C81.7188 117.297 81.8067 117.073 81.8067 116.824C81.8067 116.507 81.6905 116.257 81.4582 116.076C81.2258 115.895 80.8547 115.736 80.3447 115.6L78.7637 115.09C78.078 114.875 77.551 114.58 77.1827 114.206C76.82 113.826 76.6387 113.373 76.6387 112.846C76.6387 112.189 76.9277 111.662 77.5057 111.265C78.0837 110.868 78.843 110.67 79.7837 110.67C80.781 110.67 81.5545 110.874 82.1042 111.282C82.6538 111.69 82.94 112.2 82.9627 112.812H81.6537C81.6027 112.455 81.4213 112.186 81.1097 112.004C80.798 111.817 80.356 111.724 79.7837 111.724C79.234 111.724 78.8033 111.849 78.4917 112.098C78.1857 112.342 78.0327 112.614 78.0327 112.914C78.0327 113.475 78.5143 113.889 79.4777 114.155L81.0927 114.699C81.7897 114.909 82.3223 115.183 82.6907 115.523C83.0647 115.863 83.2517 116.297 83.2517 116.824C83.2517 117.232 83.1185 117.617 82.8522 117.98C82.5858 118.343 82.209 118.637 81.7217 118.864C81.2343 119.091 80.6563 119.204 79.9877 119.204ZM88.4943 119.204C88.0523 119.204 87.6557 119.119 87.3043 118.949C86.953 118.779 86.6753 118.524 86.4713 118.184C86.2673 117.844 86.1653 117.419 86.1653 116.909V108.613H87.4743V116.875C87.4743 117.714 87.8653 118.133 88.6473 118.133C88.8797 118.133 89.1035 118.107 89.3188 118.056C89.5398 118.005 89.7863 117.929 90.0583 117.827L90.2453 118.779C89.9563 118.904 89.6673 119.006 89.3783 119.085C89.095 119.164 88.8003 119.204 88.4943 119.204ZM84.8563 111.792V110.874H90.0413V111.792H84.8563ZM95.0101 110.874H96.5231L99.0731 117.861H98.8861L101.436 110.874H102.949L99.7021 119H98.2571L95.0101 110.874ZM107.793 119.204C107.09 119.204 106.461 119.025 105.906 118.668C105.356 118.306 104.92 117.804 104.597 117.164C104.28 116.524 104.121 115.787 104.121 114.954C104.121 114.064 104.28 113.299 104.597 112.659C104.914 112.019 105.348 111.528 105.897 111.188C106.453 110.843 107.085 110.67 107.793 110.67C108.411 110.67 108.938 110.795 109.374 111.044C109.81 111.293 110.162 111.63 110.428 112.055C110.694 112.48 110.878 112.962 110.98 113.5C111.088 114.033 111.119 114.586 111.074 115.158H105.192V114.342H110.198L109.807 114.597C109.824 114.263 109.805 113.928 109.748 113.594C109.697 113.26 109.598 112.954 109.45 112.676C109.303 112.393 109.096 112.166 108.83 111.996C108.564 111.826 108.224 111.741 107.81 111.741C107.289 111.741 106.852 111.874 106.501 112.14C106.15 112.407 105.886 112.758 105.71 113.194C105.535 113.625 105.447 114.093 105.447 114.597V115.141C105.447 115.708 105.532 116.215 105.702 116.662C105.878 117.11 106.138 117.464 106.484 117.725C106.83 117.986 107.266 118.116 107.793 118.116C108.32 118.116 108.753 117.988 109.093 117.733C109.433 117.478 109.64 117.102 109.714 116.603H111.091C111.006 117.141 110.813 117.606 110.513 117.997C110.213 118.382 109.83 118.68 109.365 118.889C108.901 119.099 108.377 119.204 107.793 119.204ZM113.703 119V110.857H115.029V119H113.703ZM114.621 115.328C114.621 114.297 114.72 113.441 114.919 112.761C115.117 112.075 115.406 111.565 115.786 111.231C116.171 110.891 116.639 110.721 117.188 110.721C117.37 110.721 117.534 110.735 117.681 110.763C117.834 110.786 117.987 110.823 118.14 110.874L118.055 112.183C117.897 112.132 117.724 112.089 117.537 112.055C117.35 112.016 117.183 111.996 117.035 111.996C116.554 111.996 116.165 112.135 115.871 112.412C115.576 112.684 115.361 113.07 115.225 113.568C115.094 114.067 115.029 114.654 115.029 115.328H114.621ZM122.77 119.204C121.982 119.204 121.325 119.093 120.798 118.872C120.271 118.646 119.871 118.337 119.599 117.946C119.327 117.549 119.183 117.096 119.166 116.586H120.441C120.469 117.102 120.676 117.49 121.061 117.751C121.452 118.005 121.982 118.133 122.651 118.133C123.002 118.133 123.325 118.076 123.62 117.963C123.915 117.85 124.15 117.694 124.325 117.495C124.501 117.297 124.589 117.073 124.589 116.824C124.589 116.507 124.473 116.257 124.24 116.076C124.008 115.895 123.637 115.736 123.127 115.6L121.546 115.09C120.86 114.875 120.333 114.58 119.965 114.206C119.602 113.826 119.421 113.373 119.421 112.846C119.421 112.189 119.71 111.662 120.288 111.265C120.866 110.868 121.625 110.67 122.566 110.67C123.563 110.67 124.337 110.874 124.886 111.282C125.436 111.69 125.722 112.2 125.745 112.812H124.436C124.385 112.455 124.204 112.186 123.892 112.004C123.58 111.817 123.138 111.724 122.566 111.724C122.016 111.724 121.586 111.849 121.274 112.098C120.968 112.342 120.815 112.614 120.815 112.914C120.815 113.475 121.297 113.889 122.26 114.155L123.875 114.699C124.572 114.909 125.105 115.183 125.473 115.523C125.847 115.863 126.034 116.297 126.034 116.824C126.034 117.232 125.901 117.617 125.634 117.98C125.368 118.343 124.991 118.637 124.504 118.864C124.017 119.091 123.439 119.204 122.77 119.204ZM133.81 119L133.64 117.215V113.73C133.64 112.999 133.484 112.475 133.172 112.157C132.86 111.834 132.393 111.673 131.77 111.673C131.418 111.673 131.098 111.724 130.809 111.826C130.526 111.928 130.299 112.087 130.129 112.302C129.965 112.512 129.883 112.784 129.883 113.118H128.404C128.404 112.529 128.548 112.055 128.837 111.698C129.126 111.336 129.523 111.075 130.027 110.916C130.537 110.752 131.118 110.67 131.77 110.67C132.393 110.67 132.945 110.775 133.427 110.984C133.909 111.194 134.286 111.528 134.558 111.987C134.83 112.441 134.966 113.033 134.966 113.764V119H133.81ZM131.039 119.204C130.37 119.204 129.817 119.085 129.381 118.847C128.945 118.609 128.619 118.3 128.404 117.92C128.188 117.541 128.081 117.141 128.081 116.722C128.081 116.172 128.217 115.725 128.489 115.379C128.766 115.033 129.143 114.781 129.619 114.622C130.095 114.458 130.631 114.376 131.226 114.376C131.651 114.376 132.076 114.418 132.501 114.503C132.931 114.588 133.351 114.705 133.759 114.852V115.685C133.419 115.549 133.033 115.441 132.603 115.362C132.178 115.283 131.787 115.243 131.43 115.243C130.886 115.243 130.427 115.356 130.053 115.583C129.679 115.804 129.492 116.184 129.492 116.722C129.492 117.119 129.633 117.459 129.917 117.742C130.206 118.025 130.665 118.167 131.294 118.167C131.736 118.167 132.132 118.065 132.484 117.861C132.841 117.651 133.121 117.391 133.325 117.079C133.535 116.767 133.64 116.456 133.64 116.144H133.963C133.963 116.688 133.844 117.192 133.606 117.657C133.373 118.122 133.039 118.496 132.603 118.779C132.166 119.062 131.645 119.204 131.039 119.204ZM140.64 119.204C140.198 119.204 139.801 119.119 139.45 118.949C139.098 118.779 138.821 118.524 138.617 118.184C138.413 117.844 138.311 117.419 138.311 116.909V108.613H139.62V116.875C139.62 117.714 140.011 118.133 140.793 118.133C141.025 118.133 141.249 118.107 141.464 118.056C141.685 118.005 141.932 117.929 142.204 117.827L142.391 118.779C142.102 118.904 141.813 119.006 141.524 119.085C141.24 119.164 140.946 119.204 140.64 119.204ZM137.002 111.792V110.874H142.187V111.792H137.002ZM145.28 108.953C145.008 108.953 144.793 108.876 144.634 108.723C144.476 108.565 144.396 108.358 144.396 108.103C144.396 107.854 144.476 107.655 144.634 107.508C144.793 107.361 145.008 107.287 145.28 107.287C145.552 107.287 145.768 107.361 145.926 107.508C146.085 107.655 146.164 107.854 146.164 108.103C146.164 108.358 146.085 108.565 145.926 108.723C145.768 108.876 145.552 108.953 145.28 108.953ZM144.617 119V110.857H145.943V119H144.617ZM149.596 119V107.406H150.922V119H149.596ZM157.183 119.204C156.48 119.204 155.851 119.025 155.296 118.668C154.746 118.306 154.31 117.804 153.987 117.164C153.669 116.524 153.511 115.787 153.511 114.954C153.511 114.064 153.669 113.299 153.987 112.659C154.304 112.019 154.737 111.528 155.287 111.188C155.842 110.843 156.474 110.67 157.183 110.67C157.8 110.67 158.327 110.795 158.764 111.044C159.2 111.293 159.551 111.63 159.818 112.055C160.084 112.48 160.268 112.962 160.37 113.5C160.478 114.033 160.509 114.586 160.464 115.158H154.582V114.342H159.588L159.197 114.597C159.214 114.263 159.194 113.928 159.138 113.594C159.087 113.26 158.987 112.954 158.84 112.676C158.693 112.393 158.486 112.166 158.22 111.996C157.953 111.826 157.613 111.741 157.2 111.741C156.678 111.741 156.242 111.874 155.891 112.14C155.539 112.407 155.276 112.758 155.1 113.194C154.924 113.625 154.837 114.093 154.837 114.597V115.141C154.837 115.708 154.922 116.215 155.092 116.662C155.267 117.11 155.528 117.464 155.874 117.725C156.219 117.986 156.656 118.116 157.183 118.116C157.71 118.116 158.143 117.988 158.483 117.733C158.823 117.478 159.03 117.102 159.104 116.603H160.481C160.396 117.141 160.203 117.606 159.903 117.997C159.602 118.382 159.22 118.68 158.755 118.889C158.29 119.099 157.766 119.204 157.183 119.204ZM167.569 119V109.616C167.569 109.078 167.671 108.638 167.875 108.298C168.085 107.953 168.362 107.698 168.708 107.533C169.059 107.369 169.45 107.287 169.881 107.287C170.113 107.287 170.349 107.304 170.587 107.338C170.83 107.372 171.071 107.423 171.309 107.491L171.054 108.545C170.884 108.477 170.714 108.426 170.544 108.392C170.38 108.358 170.221 108.341 170.068 108.341C169.887 108.341 169.705 108.375 169.524 108.443C169.343 108.511 169.193 108.638 169.074 108.825C168.955 109.012 168.895 109.282 168.895 109.633V119H167.569ZM166.243 111.792V110.874H170.578V111.792H166.243ZM178.479 110.857H179.805V119H178.479V110.857ZM172.716 110.857H174.042V115.923C174.042 116.603 174.207 117.119 174.535 117.47C174.87 117.821 175.346 117.997 175.963 117.997C176.473 117.997 176.915 117.861 177.289 117.589C177.669 117.317 177.961 116.943 178.165 116.467C178.374 115.985 178.479 115.436 178.479 114.818H178.972C178.972 115.73 178.839 116.509 178.573 117.155C178.312 117.801 177.941 118.297 177.459 118.643C176.983 118.983 176.422 119.153 175.776 119.153C175.164 119.153 174.629 119.04 174.17 118.813C173.711 118.586 173.354 118.243 173.099 117.784C172.844 117.32 172.716 116.733 172.716 116.025V110.857ZM183.247 119V110.857H184.573V119H183.247ZM184.165 115.328C184.165 114.297 184.264 113.441 184.463 112.761C184.661 112.075 184.95 111.565 185.33 111.231C185.715 110.891 186.183 110.721 186.732 110.721C186.914 110.721 187.078 110.735 187.225 110.763C187.378 110.786 187.531 110.823 187.684 110.874L187.599 112.183C187.441 112.132 187.268 112.089 187.081 112.055C186.894 112.016 186.727 111.996 186.579 111.996C186.098 111.996 185.709 112.135 185.415 112.412C185.12 112.684 184.905 113.07 184.769 113.568C184.638 114.067 184.573 114.654 184.573 115.328H184.165ZM195.17 119V114.223C195.17 113.447 194.983 112.857 194.609 112.455C194.241 112.047 193.736 111.843 193.096 111.843C192.609 111.843 192.186 111.976 191.829 112.242C191.472 112.509 191.198 112.891 191.005 113.39C190.812 113.883 190.716 114.472 190.716 115.158H190.206C190.206 114.212 190.331 113.404 190.58 112.735C190.829 112.067 191.192 111.557 191.668 111.205C192.15 110.848 192.733 110.67 193.419 110.67C194.059 110.67 194.606 110.814 195.059 111.103C195.518 111.387 195.87 111.795 196.113 112.327C196.357 112.86 196.479 113.492 196.479 114.223V119H195.17ZM189.39 119V110.874H190.529L190.716 112.744V119H189.39ZM200.398 108.953C200.126 108.953 199.91 108.876 199.752 108.723C199.593 108.565 199.514 108.358 199.514 108.103C199.514 107.854 199.593 107.655 199.752 107.508C199.91 107.361 200.126 107.287 200.398 107.287C200.67 107.287 200.885 107.361 201.044 107.508C201.202 107.655 201.282 107.854 201.282 108.103C201.282 108.358 201.202 108.565 201.044 108.723C200.885 108.876 200.67 108.953 200.398 108.953ZM199.735 119V110.857H201.061V119H199.735ZM207.212 119.204C206.77 119.204 206.373 119.119 206.022 118.949C205.671 118.779 205.393 118.524 205.189 118.184C204.985 117.844 204.883 117.419 204.883 116.909V108.613H206.192V116.875C206.192 117.714 206.583 118.133 207.365 118.133C207.597 118.133 207.821 118.107 208.037 118.056C208.258 118.005 208.504 117.929 208.776 117.827L208.963 118.779C208.674 118.904 208.385 119.006 208.096 119.085C207.813 119.164 207.518 119.204 207.212 119.204ZM203.574 111.792V110.874H208.759V111.792H203.574ZM216.63 110.857H217.956V119H216.63V110.857ZM210.867 110.857H212.193V115.923C212.193 116.603 212.357 117.119 212.686 117.47C213.02 117.821 213.496 117.997 214.114 117.997C214.624 117.997 215.066 117.861 215.44 117.589C215.819 117.317 216.111 116.943 216.315 116.467C216.525 115.985 216.63 115.436 216.63 114.818H217.123C217.123 115.73 216.99 116.509 216.723 117.155C216.463 117.801 216.091 118.297 215.61 118.643C215.134 118.983 214.573 119.153 213.927 119.153C213.315 119.153 212.779 119.04 212.32 118.813C211.861 118.586 211.504 118.243 211.249 117.784C210.994 117.32 210.867 116.733 210.867 116.025V110.857ZM221.398 119V110.857H222.724V119H221.398ZM222.316 115.328C222.316 114.297 222.415 113.441 222.613 112.761C222.811 112.075 223.1 111.565 223.48 111.231C223.865 110.891 224.333 110.721 224.883 110.721C225.064 110.721 225.228 110.735 225.376 110.763C225.529 110.786 225.682 110.823 225.835 110.874L225.75 112.183C225.591 112.132 225.418 112.089 225.231 112.055C225.044 112.016 224.877 111.996 224.73 111.996C224.248 111.996 223.86 112.135 223.565 112.412C223.27 112.684 223.055 113.07 222.919 113.568C222.789 114.067 222.724 114.654 222.724 115.328H222.316ZM230.362 119.204C229.66 119.204 229.031 119.025 228.475 118.668C227.926 118.306 227.489 117.804 227.166 117.164C226.849 116.524 226.69 115.787 226.69 114.954C226.69 114.064 226.849 113.299 227.166 112.659C227.484 112.019 227.917 111.528 228.467 111.188C229.022 110.843 229.654 110.67 230.362 110.67C230.98 110.67 231.507 110.795 231.943 111.044C232.38 111.293 232.731 111.63 232.997 112.055C233.264 112.48 233.448 112.962 233.55 113.5C233.657 114.033 233.689 114.586 233.643 115.158H227.761V114.342H232.768L232.377 114.597C232.394 114.263 232.374 113.928 232.317 113.594C232.266 113.26 232.167 112.954 232.02 112.676C231.872 112.393 231.666 112.166 231.399 111.996C231.133 111.826 230.793 111.741 230.379 111.741C229.858 111.741 229.422 111.874 229.07 112.14C228.719 112.407 228.455 112.758 228.28 113.194C228.104 113.625 228.016 114.093 228.016 114.597V115.141C228.016 115.708 228.101 116.215 228.271 116.662C228.447 117.11 228.708 117.464 229.053 117.725C229.399 117.986 229.835 118.116 230.362 118.116C230.889 118.116 231.323 117.988 231.663 117.733C232.003 117.478 232.21 117.102 232.283 116.603H233.66C233.575 117.141 233.383 117.606 233.082 117.997C232.782 118.382 232.399 118.68 231.935 118.889C231.47 119.099 230.946 119.204 230.362 119.204ZM243.231 119.204C242.443 119.204 241.786 119.093 241.259 118.872C240.732 118.646 240.332 118.337 240.06 117.946C239.788 117.549 239.644 117.096 239.627 116.586H240.902C240.93 117.102 241.137 117.49 241.522 117.751C241.913 118.005 242.443 118.133 243.112 118.133C243.463 118.133 243.786 118.076 244.081 117.963C244.376 117.85 244.611 117.694 244.786 117.495C244.962 117.297 245.05 117.073 245.05 116.824C245.05 116.507 244.934 116.257 244.701 116.076C244.469 115.895 244.098 115.736 243.588 115.6L242.007 115.09C241.321 114.875 240.794 114.58 240.426 114.206C240.063 113.826 239.882 113.373 239.882 112.846C239.882 112.189 240.171 111.662 240.749 111.265C241.327 110.868 242.086 110.67 243.027 110.67C244.024 110.67 244.798 110.874 245.347 111.282C245.897 111.69 246.183 112.2 246.206 112.812H244.897C244.846 112.455 244.665 112.186 244.353 112.004C244.041 111.817 243.599 111.724 243.027 111.724C242.477 111.724 242.047 111.849 241.735 112.098C241.429 112.342 241.276 112.614 241.276 112.914C241.276 113.475 241.758 113.889 242.721 114.155L244.336 114.699C245.033 114.909 245.566 115.183 245.934 115.523C246.308 115.863 246.495 116.297 246.495 116.824C246.495 117.232 246.362 117.617 246.095 117.98C245.829 118.343 245.452 118.637 244.965 118.864C244.478 119.091 243.9 119.204 243.231 119.204ZM247.563 110.874H249.042L251.694 117.844H251.388L253.445 110.874H254.805L251.745 120.632C251.49 121.448 251.15 122.077 250.725 122.519C250.3 122.961 249.756 123.182 249.093 123.182C248.736 123.182 248.396 123.131 248.073 123.029C247.756 122.927 247.427 122.78 247.087 122.587V121.363C247.388 121.601 247.677 121.771 247.954 121.873C248.238 121.975 248.532 122.026 248.838 122.026C249.178 122.026 249.462 121.918 249.688 121.703C249.921 121.488 250.113 121.21 250.266 120.87C250.419 120.536 250.55 120.184 250.657 119.816L250.895 119L247.563 110.874ZM259.749 119.204C258.962 119.204 258.304 119.093 257.777 118.872C257.25 118.646 256.851 118.337 256.579 117.946C256.307 117.549 256.162 117.096 256.145 116.586H257.42C257.449 117.102 257.656 117.49 258.041 117.751C258.432 118.005 258.962 118.133 259.63 118.133C259.982 118.133 260.305 118.076 260.599 117.963C260.894 117.85 261.129 117.694 261.305 117.495C261.481 117.297 261.568 117.073 261.568 116.824C261.568 116.507 261.452 116.257 261.22 116.076C260.988 115.895 260.616 115.736 260.106 115.6L258.525 115.09C257.84 114.875 257.313 114.58 256.944 114.206C256.582 113.826 256.4 113.373 256.4 112.846C256.4 112.189 256.689 111.662 257.267 111.265C257.845 110.868 258.605 110.67 259.545 110.67C260.543 110.67 261.316 110.874 261.866 111.282C262.416 111.69 262.702 112.2 262.724 112.812H261.415C261.364 112.455 261.183 112.186 260.871 112.004C260.56 111.817 260.118 111.724 259.545 111.724C258.996 111.724 258.565 111.849 258.253 112.098C257.947 112.342 257.794 112.614 257.794 112.914C257.794 113.475 258.276 113.889 259.239 114.155L260.854 114.699C261.551 114.909 262.084 115.183 262.452 115.523C262.826 115.863 263.013 116.297 263.013 116.824C263.013 117.232 262.88 117.617 262.614 117.98C262.348 118.343 261.971 118.637 261.483 118.864C260.996 119.091 260.418 119.204 259.749 119.204ZM268.256 119.204C267.814 119.204 267.417 119.119 267.066 118.949C266.715 118.779 266.437 118.524 266.233 118.184C266.029 117.844 265.927 117.419 265.927 116.909V108.613H267.236V116.875C267.236 117.714 267.627 118.133 268.409 118.133C268.641 118.133 268.865 118.107 269.081 118.056C269.302 118.005 269.548 117.929 269.82 117.827L270.007 118.779C269.718 118.904 269.429 119.006 269.14 119.085C268.857 119.164 268.562 119.204 268.256 119.204ZM264.618 111.792V110.874H269.803V111.792H264.618ZM274.971 119.204C274.268 119.204 273.639 119.025 273.084 118.668C272.534 118.306 272.098 117.804 271.775 117.164C271.457 116.524 271.299 115.787 271.299 114.954C271.299 114.064 271.457 113.299 271.775 112.659C272.092 112.019 272.525 111.528 273.075 111.188C273.63 110.843 274.262 110.67 274.971 110.67C275.588 110.67 276.115 110.795 276.552 111.044C276.988 111.293 277.339 111.63 277.606 112.055C277.872 112.48 278.056 112.962 278.158 113.5C278.266 114.033 278.297 114.586 278.252 115.158H272.37V114.342H277.376L276.985 114.597C277.002 114.263 276.982 113.928 276.926 113.594C276.875 113.26 276.775 112.954 276.628 112.676C276.481 112.393 276.274 112.166 276.008 111.996C275.741 111.826 275.401 111.741 274.988 111.741C274.466 111.741 274.03 111.874 273.679 112.14C273.327 112.407 273.064 112.758 272.888 113.194C272.712 113.625 272.625 114.093 272.625 114.597V115.141C272.625 115.708 272.71 116.215 272.88 116.662C273.055 117.11 273.316 117.464 273.662 117.725C274.007 117.986 274.444 118.116 274.971 118.116C275.498 118.116 275.931 117.988 276.271 117.733C276.611 117.478 276.818 117.102 276.892 116.603H278.269C278.184 117.141 277.991 117.606 277.691 117.997C277.39 118.382 277.008 118.68 276.543 118.889C276.078 119.099 275.554 119.204 274.971 119.204ZM292.305 119V114.223C292.305 113.447 292.118 112.857 291.744 112.455C291.376 112.047 290.877 111.843 290.248 111.843C289.511 111.843 288.948 112.129 288.557 112.701C288.166 113.268 287.97 114.053 287.97 115.056H287.358C287.358 114.325 287.429 113.685 287.571 113.135C287.718 112.585 287.93 112.129 288.208 111.766C288.486 111.398 288.823 111.123 289.22 110.942C289.616 110.761 290.067 110.67 290.571 110.67C291.211 110.67 291.758 110.814 292.212 111.103C292.671 111.387 293.022 111.795 293.266 112.327C293.509 112.86 293.631 113.492 293.631 114.223V119H292.305ZM280.881 119V110.874H282.02L282.173 112.506C282.428 111.917 282.785 111.463 283.244 111.146C283.709 110.829 284.264 110.67 284.91 110.67C285.55 110.67 286.097 110.814 286.551 111.103C287.01 111.387 287.361 111.795 287.605 112.327C287.848 112.86 287.97 113.492 287.97 114.223V119H286.661V114.223C286.661 113.447 286.474 112.857 286.1 112.455C285.732 112.047 285.227 111.843 284.587 111.843C284.1 111.843 283.678 111.976 283.321 112.242C282.964 112.509 282.689 112.891 282.496 113.39C282.303 113.883 282.207 114.472 282.207 115.158V119H280.881ZM303.642 119.204C302.939 119.204 302.31 119.025 301.755 118.668C301.205 118.306 300.769 117.804 300.446 117.164C300.128 116.524 299.97 115.787 299.97 114.954C299.97 114.064 300.128 113.299 300.446 112.659C300.763 112.019 301.196 111.528 301.746 111.188C302.301 110.843 302.933 110.67 303.642 110.67C304.259 110.67 304.786 110.795 305.223 111.044C305.659 111.293 306.01 111.63 306.277 112.055C306.543 112.48 306.727 112.962 306.829 113.5C306.937 114.033 306.968 114.586 306.923 115.158H301.041V114.342H306.047L305.656 114.597C305.673 114.263 305.653 113.928 305.597 113.594C305.546 113.26 305.446 112.954 305.299 112.676C305.152 112.393 304.945 112.166 304.679 111.996C304.412 111.826 304.072 111.741 303.659 111.741C303.137 111.741 302.701 111.874 302.35 112.14C301.998 112.407 301.735 112.758 301.559 113.194C301.383 113.625 301.296 114.093 301.296 114.597V115.141C301.296 115.708 301.381 116.215 301.551 116.662C301.726 117.11 301.987 117.464 302.333 117.725C302.678 117.986 303.115 118.116 303.642 118.116C304.169 118.116 304.602 117.988 304.942 117.733C305.282 117.478 305.489 117.102 305.563 116.603H306.94C306.855 117.141 306.662 117.606 306.362 117.997C306.061 118.382 305.679 118.68 305.214 118.889C304.749 119.099 304.225 119.204 303.642 119.204ZM308.141 110.874H309.654L312.204 117.861H312.017L314.567 110.874H316.08L312.833 119H311.388L308.141 110.874ZM320.924 119.204C320.221 119.204 319.592 119.025 319.037 118.668C318.487 118.306 318.051 117.804 317.728 117.164C317.41 116.524 317.252 115.787 317.252 114.954C317.252 114.064 317.41 113.299 317.728 112.659C318.045 112.019 318.479 111.528 319.028 111.188C319.584 110.843 320.215 110.67 320.924 110.67C321.541 110.67 322.068 110.795 322.505 111.044C322.941 111.293 323.292 111.63 323.559 112.055C323.825 112.48 324.009 112.962 324.111 113.5C324.219 114.033 324.25 114.586 324.205 115.158H318.323V114.342H323.329L322.938 114.597C322.955 114.263 322.935 113.928 322.879 113.594C322.828 113.26 322.729 112.954 322.581 112.676C322.434 112.393 322.227 112.166 321.961 111.996C321.694 111.826 321.354 111.741 320.941 111.741C320.419 111.741 319.983 111.874 319.632 112.14C319.28 112.407 319.017 112.758 318.841 113.194C318.666 113.625 318.578 114.093 318.578 114.597V115.141C318.578 115.708 318.663 116.215 318.833 116.662C319.008 117.11 319.269 117.464 319.615 117.725C319.96 117.986 320.397 118.116 320.924 118.116C321.451 118.116 321.884 117.988 322.224 117.733C322.564 117.478 322.771 117.102 322.845 116.603H324.222C324.137 117.141 323.944 117.606 323.644 117.997C323.343 118.382 322.961 118.68 322.496 118.889C322.032 119.099 321.507 119.204 320.924 119.204ZM326.834 119V110.857H328.16V119H326.834ZM327.752 115.328C327.752 114.297 327.851 113.441 328.05 112.761C328.248 112.075 328.537 111.565 328.917 111.231C329.302 110.891 329.77 110.721 330.319 110.721C330.501 110.721 330.665 110.735 330.812 110.763C330.965 110.786 331.118 110.823 331.271 110.874L331.186 112.183C331.028 112.132 330.855 112.089 330.668 112.055C330.481 112.016 330.314 111.996 330.166 111.996C329.685 111.996 329.296 112.135 329.002 112.412C328.707 112.684 328.492 113.07 328.356 113.568C328.225 114.067 328.16 114.654 328.16 115.328H327.752ZM339.867 119.204C339.215 119.204 338.606 119.028 338.039 118.677C337.478 118.326 337.025 117.83 336.679 117.189C336.334 116.549 336.161 115.793 336.161 114.92C336.161 114.025 336.334 113.26 336.679 112.625C337.025 111.99 337.478 111.506 338.039 111.171C338.606 110.837 339.215 110.67 339.867 110.67C340.326 110.67 340.737 110.741 341.099 110.882C341.468 111.018 341.788 111.208 342.06 111.452C342.332 111.696 342.556 111.973 342.731 112.285C342.913 112.591 343.046 112.914 343.131 113.254L341.771 113.373C341.629 112.903 341.391 112.531 341.057 112.259C340.728 111.982 340.326 111.843 339.85 111.843C339.448 111.843 339.068 111.959 338.711 112.191C338.36 112.418 338.073 112.761 337.852 113.22C337.631 113.673 337.521 114.24 337.521 114.92C337.521 115.549 337.62 116.096 337.818 116.56C338.022 117.019 338.3 117.376 338.651 117.631C339.003 117.886 339.402 118.014 339.85 118.014C340.479 118.014 340.955 117.861 341.278 117.555C341.607 117.243 341.771 116.813 341.771 116.263H343.131C343.131 116.83 342.998 117.334 342.731 117.776C342.465 118.218 342.085 118.566 341.592 118.821C341.105 119.076 340.53 119.204 339.867 119.204ZM345.777 119V110.857H347.103V119H345.777ZM346.695 115.328C346.695 114.297 346.794 113.441 346.992 112.761C347.19 112.075 347.479 111.565 347.859 111.231C348.244 110.891 348.712 110.721 349.262 110.721C349.443 110.721 349.607 110.735 349.755 110.763C349.908 110.786 350.061 110.823 350.214 110.874L350.129 112.183C349.97 112.132 349.797 112.089 349.61 112.055C349.423 112.016 349.256 111.996 349.109 111.996C348.627 111.996 348.239 112.135 347.944 112.412C347.649 112.684 347.434 113.07 347.298 113.568C347.168 114.067 347.103 114.654 347.103 115.328H346.695ZM354.741 119.204C354.038 119.204 353.409 119.025 352.854 118.668C352.304 118.306 351.868 117.804 351.545 117.164C351.228 116.524 351.069 115.787 351.069 114.954C351.069 114.064 351.228 113.299 351.545 112.659C351.862 112.019 352.296 111.528 352.846 111.188C353.401 110.843 354.033 110.67 354.741 110.67C355.359 110.67 355.886 110.795 356.322 111.044C356.758 111.293 357.11 111.63 357.376 112.055C357.642 112.48 357.827 112.962 357.929 113.5C358.036 114.033 358.067 114.586 358.022 115.158H352.14V114.342H357.147L356.756 114.597C356.773 114.263 356.753 113.928 356.696 113.594C356.645 113.26 356.546 112.954 356.399 112.676C356.251 112.393 356.044 112.166 355.778 111.996C355.512 111.826 355.172 111.741 354.758 111.741C354.237 111.741 353.8 111.874 353.449 112.14C353.098 112.407 352.834 112.758 352.659 113.194C352.483 113.625 352.395 114.093 352.395 114.597V115.141C352.395 115.708 352.48 116.215 352.65 116.662C352.826 117.11 353.086 117.464 353.432 117.725C353.778 117.986 354.214 118.116 354.741 118.116C355.268 118.116 355.702 117.988 356.042 117.733C356.382 117.478 356.588 117.102 356.662 116.603H358.039C357.954 117.141 357.761 117.606 357.461 117.997C357.161 118.382 356.778 118.68 356.314 118.889C355.849 119.099 355.325 119.204 354.741 119.204ZM365.684 119L365.514 117.215V113.73C365.514 112.999 365.358 112.475 365.046 112.157C364.734 111.834 364.267 111.673 363.644 111.673C363.292 111.673 362.972 111.724 362.683 111.826C362.4 111.928 362.173 112.087 362.003 112.302C361.839 112.512 361.757 112.784 361.757 113.118H360.278C360.278 112.529 360.422 112.055 360.711 111.698C361 111.336 361.397 111.075 361.901 110.916C362.411 110.752 362.992 110.67 363.644 110.67C364.267 110.67 364.819 110.775 365.301 110.984C365.783 111.194 366.16 111.528 366.432 111.987C366.704 112.441 366.84 113.033 366.84 113.764V119H365.684ZM362.913 119.204C362.244 119.204 361.691 119.085 361.255 118.847C360.819 118.609 360.493 118.3 360.278 117.92C360.062 117.541 359.955 117.141 359.955 116.722C359.955 116.172 360.091 115.725 360.363 115.379C360.64 115.033 361.017 114.781 361.493 114.622C361.969 114.458 362.505 114.376 363.1 114.376C363.525 114.376 363.95 114.418 364.375 114.503C364.805 114.588 365.225 114.705 365.633 114.852V115.685C365.293 115.549 364.907 115.441 364.477 115.362C364.052 115.283 363.661 115.243 363.304 115.243C362.76 115.243 362.301 115.356 361.927 115.583C361.553 115.804 361.366 116.184 361.366 116.722C361.366 117.119 361.507 117.459 361.791 117.742C362.08 118.025 362.539 118.167 363.168 118.167C363.61 118.167 364.006 118.065 364.358 117.861C364.715 117.651 364.995 117.391 365.199 117.079C365.409 116.767 365.514 116.456 365.514 116.144H365.837C365.837 116.688 365.718 117.192 365.48 117.657C365.247 118.122 364.913 118.496 364.477 118.779C364.04 119.062 363.519 119.204 362.913 119.204ZM372.514 119.204C372.072 119.204 371.675 119.119 371.324 118.949C370.973 118.779 370.695 118.524 370.491 118.184C370.287 117.844 370.185 117.419 370.185 116.909V108.613H371.494V116.875C371.494 117.714 371.885 118.133 372.667 118.133C372.899 118.133 373.123 118.107 373.338 118.056C373.559 118.005 373.806 117.929 374.078 117.827L374.265 118.779C373.976 118.904 373.687 119.006 373.398 119.085C373.115 119.164 372.82 119.204 372.514 119.204ZM368.876 111.792V110.874H374.061V111.792H368.876ZM379.228 119.204C378.526 119.204 377.897 119.025 377.341 118.668C376.792 118.306 376.355 117.804 376.032 117.164C375.715 116.524 375.556 115.787 375.556 114.954C375.556 114.064 375.715 113.299 376.032 112.659C376.35 112.019 376.783 111.528 377.333 111.188C377.888 110.843 378.52 110.67 379.228 110.67C379.846 110.67 380.373 110.795 380.809 111.044C381.246 111.293 381.597 111.63 381.863 112.055C382.13 112.48 382.314 112.962 382.416 113.5C382.524 114.033 382.555 114.586 382.509 115.158H376.627V114.342H381.634L381.243 114.597C381.26 114.263 381.24 113.928 381.183 113.594C381.132 113.26 381.033 112.954 380.886 112.676C380.739 112.393 380.532 112.166 380.265 111.996C379.999 111.826 379.659 111.741 379.245 111.741C378.724 111.741 378.288 111.874 377.936 112.14C377.585 112.407 377.322 112.758 377.146 113.194C376.97 113.625 376.882 114.093 376.882 114.597V115.141C376.882 115.708 376.967 116.215 377.137 116.662C377.313 117.11 377.574 117.464 377.919 117.725C378.265 117.986 378.701 118.116 379.228 118.116C379.755 118.116 380.189 117.988 380.529 117.733C380.869 117.478 381.076 117.102 381.149 116.603H382.526C382.441 117.141 382.249 117.606 381.948 117.997C381.648 118.382 381.266 118.68 380.801 118.889C380.336 119.099 379.812 119.204 379.228 119.204ZM388.046 119.204C387.389 119.204 386.785 119.028 386.235 118.677C385.686 118.32 385.247 117.821 384.918 117.181C384.589 116.535 384.425 115.776 384.425 114.903C384.425 114.036 384.586 113.285 384.909 112.65C385.232 112.016 385.66 111.528 386.193 111.188C386.731 110.843 387.321 110.67 387.961 110.67C388.556 110.67 389.077 110.814 389.525 111.103C389.978 111.392 390.33 111.809 390.579 112.353C390.828 112.897 390.953 113.554 390.953 114.325H390.443C390.443 113.787 390.335 113.333 390.12 112.965C389.91 112.597 389.635 112.319 389.295 112.132C388.955 111.939 388.59 111.843 388.199 111.843C387.757 111.843 387.352 111.968 386.983 112.217C386.621 112.461 386.329 112.812 386.108 113.271C385.893 113.724 385.785 114.268 385.785 114.903C385.785 115.549 385.893 116.104 386.108 116.569C386.329 117.034 386.621 117.391 386.983 117.64C387.352 117.889 387.757 118.014 388.199 118.014C388.567 118.014 388.921 117.918 389.261 117.725C389.607 117.532 389.89 117.252 390.111 116.883C390.332 116.509 390.443 116.059 390.443 115.532H390.953C390.953 116.32 390.823 116.988 390.562 117.538C390.307 118.082 389.958 118.496 389.516 118.779C389.08 119.062 388.59 119.204 388.046 119.204ZM390.664 119L390.443 117.096V107.406H391.769V119H390.664ZM394.009 118.209C394.009 117.943 394.103 117.714 394.29 117.521C394.477 117.328 394.712 117.232 394.995 117.232C395.278 117.232 395.519 117.328 395.718 117.521C395.916 117.714 396.015 117.943 396.015 118.209C396.015 118.476 395.916 118.7 395.718 118.881C395.519 119.062 395.278 119.153 394.995 119.153C394.712 119.153 394.477 119.062 394.29 118.881C394.103 118.694 394.009 118.47 394.009 118.209ZM402.288 108.324H405.416C406.493 108.324 407.428 108.545 408.221 108.987C409.015 109.423 409.629 110.041 410.066 110.84C410.502 111.639 410.72 112.58 410.72 113.662C410.72 114.733 410.502 115.668 410.066 116.467C409.629 117.266 409.015 117.889 408.221 118.337C407.428 118.779 406.493 119 405.416 119H402.288V108.324ZM403.614 109.497V117.844H405.416C406.221 117.844 406.912 117.663 407.49 117.3C408.074 116.937 408.522 116.441 408.833 115.812C409.151 115.178 409.309 114.461 409.309 113.662C409.309 112.857 409.151 112.143 408.833 111.52C408.522 110.891 408.074 110.398 407.49 110.041C406.912 109.678 406.221 109.497 405.416 109.497H403.614ZM416.333 119.204C415.63 119.204 415.001 119.025 414.446 118.668C413.896 118.306 413.46 117.804 413.137 117.164C412.82 116.524 412.661 115.787 412.661 114.954C412.661 114.064 412.82 113.299 413.137 112.659C413.454 112.019 413.888 111.528 414.437 111.188C414.993 110.843 415.625 110.67 416.333 110.67C416.951 110.67 417.478 110.795 417.914 111.044C418.35 111.293 418.702 111.63 418.968 112.055C419.234 112.48 419.418 112.962 419.52 113.5C419.628 114.033 419.659 114.586 419.614 115.158H413.732V114.342H418.738L418.347 114.597C418.364 114.263 418.345 113.928 418.288 113.594C418.237 113.26 418.138 112.954 417.99 112.676C417.843 112.393 417.636 112.166 417.37 111.996C417.104 111.826 416.764 111.741 416.35 111.741C415.829 111.741 415.392 111.874 415.041 112.14C414.69 112.407 414.426 112.758 414.25 113.194C414.075 113.625 413.987 114.093 413.987 114.597V115.141C413.987 115.708 414.072 116.215 414.242 116.662C414.418 117.11 414.678 117.464 415.024 117.725C415.37 117.986 415.806 118.116 416.333 118.116C416.86 118.116 417.293 117.988 417.633 117.733C417.973 117.478 418.18 117.102 418.254 116.603H419.631C419.546 117.141 419.353 117.606 419.053 117.997C418.753 118.382 418.37 118.68 417.905 118.889C417.441 119.099 416.917 119.204 416.333 119.204ZM425.167 119.204C424.38 119.204 423.722 119.093 423.195 118.872C422.668 118.646 422.269 118.337 421.997 117.946C421.725 117.549 421.58 117.096 421.563 116.586H422.838C422.867 117.102 423.074 117.49 423.459 117.751C423.85 118.005 424.38 118.133 425.048 118.133C425.4 118.133 425.723 118.076 426.017 117.963C426.312 117.85 426.547 117.694 426.723 117.495C426.899 117.297 426.986 117.073 426.986 116.824C426.986 116.507 426.87 116.257 426.638 116.076C426.406 115.895 426.034 115.736 425.524 115.6L423.943 115.09C423.258 114.875 422.731 114.58 422.362 114.206C422 113.826 421.818 113.373 421.818 112.846C421.818 112.189 422.107 111.662 422.685 111.265C423.263 110.868 424.023 110.67 424.963 110.67C425.961 110.67 426.734 110.874 427.284 111.282C427.834 111.69 428.12 112.2 428.142 112.812H426.833C426.782 112.455 426.601 112.186 426.289 112.004C425.978 111.817 425.536 111.724 424.963 111.724C424.414 111.724 423.983 111.849 423.671 112.098C423.365 112.342 423.212 112.614 423.212 112.914C423.212 113.475 423.694 113.889 424.657 114.155L426.272 114.699C426.969 114.909 427.502 115.183 427.87 115.523C428.244 115.863 428.431 116.297 428.431 116.824C428.431 117.232 428.298 117.617 428.032 117.98C427.766 118.343 427.389 118.637 426.901 118.864C426.414 119.091 425.836 119.204 425.167 119.204ZM431.923 108.953C431.651 108.953 431.436 108.876 431.277 108.723C431.118 108.565 431.039 108.358 431.039 108.103C431.039 107.854 431.118 107.655 431.277 107.508C431.436 107.361 431.651 107.287 431.923 107.287C432.195 107.287 432.41 107.361 432.569 107.508C432.728 107.655 432.807 107.854 432.807 108.103C432.807 108.358 432.728 108.565 432.569 108.723C432.41 108.876 432.195 108.953 431.923 108.953ZM431.26 119V110.857H432.586V119H431.26ZM439.111 123.182C438.278 123.182 437.556 123.063 436.944 122.825C436.332 122.593 435.856 122.278 435.516 121.882C435.182 121.491 435.014 121.057 435.014 120.581C435.014 119.952 435.244 119.47 435.703 119.136C436.168 118.807 436.765 118.643 437.496 118.643L438.227 119.102C437.615 119.102 437.142 119.23 436.808 119.485C436.474 119.74 436.306 120.088 436.306 120.53C436.306 120.972 436.544 121.346 437.02 121.652C437.496 121.958 438.193 122.111 439.111 122.111C439.791 122.111 440.386 122.012 440.896 121.814C441.412 121.621 441.812 121.366 442.095 121.049C442.384 120.737 442.528 120.4 442.528 120.037C442.528 119.782 442.435 119.561 442.248 119.374C442.061 119.193 441.775 119.102 441.389 119.102H438.227C437.678 119.102 437.202 119.02 436.799 118.855C436.403 118.685 436.097 118.464 435.881 118.192C435.666 117.92 435.558 117.623 435.558 117.3C435.558 116.96 435.655 116.671 435.847 116.433C436.04 116.195 436.289 116.014 436.595 115.889C436.907 115.764 437.241 115.702 437.598 115.702L437.853 116.195C437.683 116.195 437.511 116.235 437.335 116.314C437.165 116.388 437.02 116.501 436.901 116.654C436.788 116.801 436.731 116.988 436.731 117.215C436.731 117.476 436.839 117.694 437.054 117.869C437.27 118.045 437.661 118.133 438.227 118.133H441.389C442.154 118.133 442.755 118.294 443.191 118.617C443.633 118.94 443.854 119.391 443.854 119.969C443.854 120.502 443.665 121.012 443.285 121.499C442.905 121.992 442.361 122.394 441.653 122.706C440.945 123.023 440.097 123.182 439.111 123.182ZM439.349 116.62C438.726 116.62 438.162 116.495 437.658 116.246C437.159 115.997 436.763 115.648 436.468 115.2C436.179 114.753 436.034 114.234 436.034 113.645C436.034 113.05 436.179 112.529 436.468 112.081C436.763 111.633 437.159 111.288 437.658 111.044C438.162 110.795 438.726 110.67 439.349 110.67C439.956 110.67 440.505 110.795 440.998 111.044C441.497 111.288 441.894 111.633 442.188 112.081C442.483 112.529 442.63 113.05 442.63 113.645C442.63 114.234 442.483 114.753 442.188 115.2C441.894 115.648 441.497 115.997 440.998 116.246C440.505 116.495 439.956 116.62 439.349 116.62ZM439.349 115.668C439.973 115.668 440.457 115.475 440.803 115.09C441.149 114.705 441.321 114.223 441.321 113.645C441.321 113.05 441.149 112.568 440.803 112.2C440.457 111.826 439.973 111.639 439.349 111.639C438.732 111.639 438.244 111.826 437.887 112.2C437.536 112.568 437.36 113.05 437.36 113.645C437.36 114.223 437.536 114.705 437.887 115.09C438.244 115.475 438.732 115.668 439.349 115.668ZM442.018 111.962L441.389 111.707C441.389 111.231 441.483 110.814 441.67 110.458C441.857 110.095 442.123 109.814 442.469 109.616C442.815 109.412 443.225 109.31 443.701 109.31L443.599 110.619C443.089 110.619 442.698 110.729 442.426 110.95C442.154 111.166 442.018 111.503 442.018 111.962ZM451.614 119V114.223C451.614 113.447 451.427 112.857 451.053 112.455C450.685 112.047 450.181 111.843 449.54 111.843C449.053 111.843 448.631 111.976 448.274 112.242C447.917 112.509 447.642 112.891 447.449 113.39C447.257 113.883 447.16 114.472 447.16 115.158H446.65C446.65 114.212 446.775 113.404 447.024 112.735C447.274 112.067 447.636 111.557 448.112 111.205C448.594 110.848 449.178 110.67 449.863 110.67C450.504 110.67 451.05 110.814 451.504 111.103C451.963 111.387 452.314 111.795 452.558 112.327C452.801 112.86 452.923 113.492 452.923 114.223V119H451.614ZM445.834 119V110.874H446.973L447.16 112.744V119H445.834ZM458.916 119.204C458.213 119.204 457.584 119.025 457.029 118.668C456.479 118.306 456.043 117.804 455.72 117.164C455.403 116.524 455.244 115.787 455.244 114.954C455.244 114.064 455.403 113.299 455.72 112.659C456.037 112.019 456.471 111.528 457.02 111.188C457.576 110.843 458.208 110.67 458.916 110.67C459.534 110.67 460.061 110.795 460.497 111.044C460.933 111.293 461.285 111.63 461.551 112.055C461.817 112.48 462.001 112.962 462.103 113.5C462.211 114.033 462.242 114.586 462.197 115.158H456.315V114.342H461.321L460.93 114.597C460.947 114.263 460.928 113.928 460.871 113.594C460.82 113.26 460.721 112.954 460.573 112.676C460.426 112.393 460.219 112.166 459.953 111.996C459.687 111.826 459.347 111.741 458.933 111.741C458.412 111.741 457.975 111.874 457.624 112.14C457.273 112.407 457.009 112.758 456.833 113.194C456.658 113.625 456.57 114.093 456.57 114.597V115.141C456.57 115.708 456.655 116.215 456.825 116.662C457.001 117.11 457.261 117.464 457.607 117.725C457.953 117.986 458.389 118.116 458.916 118.116C459.443 118.116 459.876 117.988 460.216 117.733C460.556 117.478 460.763 117.102 460.837 116.603H462.214C462.129 117.141 461.936 117.606 461.636 117.997C461.336 118.382 460.953 118.68 460.488 118.889C460.024 119.099 459.5 119.204 458.916 119.204ZM467.733 119.204C467.076 119.204 466.473 119.028 465.923 118.677C465.373 118.32 464.934 117.821 464.605 117.181C464.277 116.535 464.112 115.776 464.112 114.903C464.112 114.036 464.274 113.285 464.597 112.65C464.92 112.016 465.348 111.528 465.88 111.188C466.419 110.843 467.008 110.67 467.648 110.67C468.243 110.67 468.765 110.814 469.212 111.103C469.666 111.392 470.017 111.809 470.266 112.353C470.516 112.897 470.64 113.554 470.64 114.325H470.13C470.13 113.787 470.023 113.333 469.807 112.965C469.598 112.597 469.323 112.319 468.983 112.132C468.643 111.939 468.277 111.843 467.886 111.843C467.444 111.843 467.039 111.968 466.671 112.217C466.308 112.461 466.016 112.812 465.795 113.271C465.58 113.724 465.472 114.268 465.472 114.903C465.472 115.549 465.58 116.104 465.795 116.569C466.016 117.034 466.308 117.391 466.671 117.64C467.039 117.889 467.444 118.014 467.886 118.014C468.255 118.014 468.609 117.918 468.949 117.725C469.295 117.532 469.578 117.252 469.799 116.883C470.02 116.509 470.13 116.059 470.13 115.532H470.64C470.64 116.32 470.51 116.988 470.249 117.538C469.994 118.082 469.646 118.496 469.204 118.779C468.768 119.062 468.277 119.204 467.733 119.204ZM470.351 119L470.13 117.096V107.406H471.456V119H470.351ZM481.437 119.204C480.995 119.204 480.598 119.119 480.247 118.949C479.895 118.779 479.618 118.524 479.414 118.184C479.21 117.844 479.108 117.419 479.108 116.909V108.613H480.417V116.875C480.417 117.714 480.808 118.133 481.59 118.133C481.822 118.133 482.046 118.107 482.261 118.056C482.482 118.005 482.729 117.929 483.001 117.827L483.188 118.779C482.899 118.904 482.61 119.006 482.321 119.085C482.037 119.164 481.743 119.204 481.437 119.204ZM477.799 111.792V110.874H482.984V111.792H477.799ZM488.27 119.204C487.539 119.204 486.888 119.043 486.315 118.72C485.749 118.396 485.301 117.918 484.972 117.283C484.644 116.648 484.479 115.866 484.479 114.937C484.479 114.002 484.644 113.22 484.972 112.591C485.301 111.956 485.749 111.477 486.315 111.154C486.888 110.831 487.539 110.67 488.27 110.67C488.996 110.67 489.642 110.831 490.208 111.154C490.781 111.477 491.228 111.956 491.551 112.591C491.88 113.22 492.044 114.002 492.044 114.937C492.044 115.866 491.88 116.648 491.551 117.283C491.228 117.918 490.781 118.396 490.208 118.72C489.642 119.043 488.996 119.204 488.27 119.204ZM488.236 118.048C488.763 118.048 489.211 117.923 489.579 117.674C489.948 117.419 490.225 117.059 490.412 116.594C490.605 116.13 490.701 115.577 490.701 114.937C490.701 113.968 490.5 113.206 490.098 112.65C489.695 112.089 489.098 111.809 488.304 111.809C487.772 111.809 487.321 111.936 486.953 112.191C486.59 112.441 486.312 112.801 486.12 113.271C485.933 113.736 485.839 114.291 485.839 114.937C485.839 115.895 486.04 116.654 486.443 117.215C486.851 117.77 487.449 118.048 488.236 118.048ZM499.102 119V109.616C499.102 109.078 499.204 108.638 499.408 108.298C499.618 107.953 499.896 107.698 500.241 107.533C500.593 107.369 500.984 107.287 501.414 107.287C501.647 107.287 501.882 107.304 502.12 107.338C502.364 107.372 502.604 107.423 502.842 107.491L502.587 108.545C502.417 108.477 502.247 108.426 502.077 108.392C501.913 108.358 501.754 108.341 501.601 108.341C501.42 108.341 501.239 108.375 501.057 108.443C500.876 108.511 500.726 108.638 500.607 108.825C500.488 109.012 500.428 109.282 500.428 109.633V119H499.102ZM497.776 111.792V110.874H502.111V111.792H497.776ZM505.231 108.953C504.959 108.953 504.744 108.876 504.585 108.723C504.426 108.565 504.347 108.358 504.347 108.103C504.347 107.854 504.426 107.655 504.585 107.508C504.744 107.361 504.959 107.287 505.231 107.287C505.503 107.287 505.718 107.361 505.877 107.508C506.036 107.655 506.115 107.854 506.115 108.103C506.115 108.358 506.036 108.565 505.877 108.723C505.718 108.876 505.503 108.953 505.231 108.953ZM504.568 119V110.857H505.894V119H504.568ZM512.05 119.204C511.608 119.204 511.211 119.119 510.86 118.949C510.509 118.779 510.231 118.524 510.027 118.184C509.823 117.844 509.721 117.419 509.721 116.909V108.613H511.03V116.875C511.03 117.714 511.421 118.133 512.203 118.133C512.435 118.133 512.659 118.107 512.874 118.056C513.095 118.005 513.342 117.929 513.614 117.827L513.801 118.779C513.512 118.904 513.223 119.006 512.934 119.085C512.651 119.164 512.356 119.204 512.05 119.204ZM508.412 111.792V110.874H513.597V111.792H508.412ZM518.634 110.874H520.113L522.765 117.844H522.459L524.516 110.874H525.876L522.816 120.632C522.561 121.448 522.221 122.077 521.796 122.519C521.371 122.961 520.827 123.182 520.164 123.182C519.807 123.182 519.467 123.131 519.144 123.029C518.826 122.927 518.498 122.78 518.158 122.587V121.363C518.458 121.601 518.747 121.771 519.025 121.873C519.308 121.975 519.603 122.026 519.909 122.026C520.249 122.026 520.532 121.918 520.759 121.703C520.991 121.488 521.184 121.21 521.337 120.87C521.49 120.536 521.62 120.184 521.728 119.816L521.966 119L518.634 110.874ZM530.837 119.204C530.106 119.204 529.454 119.043 528.882 118.72C528.315 118.396 527.867 117.918 527.539 117.283C527.21 116.648 527.046 115.866 527.046 114.937C527.046 114.002 527.21 113.22 527.539 112.591C527.867 111.956 528.315 111.477 528.882 111.154C529.454 110.831 530.106 110.67 530.837 110.67C531.562 110.67 532.208 110.831 532.775 111.154C533.347 111.477 533.795 111.956 534.118 112.591C534.446 113.22 534.611 114.002 534.611 114.937C534.611 115.866 534.446 116.648 534.118 117.283C533.795 117.918 533.347 118.396 532.775 118.72C532.208 119.043 531.562 119.204 530.837 119.204ZM530.803 118.048C531.33 118.048 531.777 117.923 532.146 117.674C532.514 117.419 532.792 117.059 532.979 116.594C533.171 116.13 533.268 115.577 533.268 114.937C533.268 113.968 533.067 113.206 532.664 112.65C532.262 112.089 531.664 111.809 530.871 111.809C530.338 111.809 529.888 111.936 529.519 112.191C529.157 112.441 528.879 112.801 528.686 113.271C528.499 113.736 528.406 114.291 528.406 114.937C528.406 115.895 528.607 116.654 529.009 117.215C529.417 117.77 530.015 118.048 530.803 118.048ZM542.718 110.857H544.044V119H542.718V110.857ZM536.955 110.857H538.281V115.923C538.281 116.603 538.445 117.119 538.774 117.47C539.108 117.821 539.584 117.997 540.202 117.997C540.712 117.997 541.154 117.861 541.528 117.589C541.907 117.317 542.199 116.943 542.403 116.467C542.613 115.985 542.718 115.436 542.718 114.818H543.211C543.211 115.73 543.077 116.509 542.811 117.155C542.55 117.801 542.179 118.297 541.698 118.643C541.222 118.983 540.661 119.153 540.015 119.153C539.403 119.153 538.867 119.04 538.408 118.813C537.949 118.586 537.592 118.243 537.337 117.784C537.082 117.32 536.955 116.733 536.955 116.025V110.857ZM547.486 119V110.857H548.812V119H547.486ZM548.404 115.328C548.404 114.297 548.503 113.441 548.701 112.761C548.899 112.075 549.188 111.565 549.568 111.231C549.953 110.891 550.421 110.721 550.971 110.721C551.152 110.721 551.316 110.735 551.464 110.763C551.617 110.786 551.77 110.823 551.923 110.874L551.838 112.183C551.679 112.132 551.506 112.089 551.319 112.055C551.132 112.016 550.965 111.996 550.818 111.996C550.336 111.996 549.948 112.135 549.653 112.412C549.358 112.684 549.143 113.07 549.007 113.568C548.877 114.067 548.812 114.654 548.812 115.328H548.404ZM557.662 119V107.406H558.988V119H557.662ZM563.175 108.953C562.903 108.953 562.688 108.876 562.529 108.723C562.37 108.565 562.291 108.358 562.291 108.103C562.291 107.854 562.37 107.655 562.529 107.508C562.688 107.361 562.903 107.287 563.175 107.287C563.447 107.287 563.662 107.361 563.821 107.508C563.98 107.655 564.059 107.854 564.059 108.103C564.059 108.358 563.98 108.565 563.821 108.723C563.662 108.876 563.447 108.953 563.175 108.953ZM562.512 119V110.857H563.838V119H562.512ZM567.932 119V109.616C567.932 109.078 568.034 108.638 568.238 108.298C568.448 107.953 568.726 107.698 569.071 107.533C569.423 107.369 569.814 107.287 570.244 107.287C570.477 107.287 570.712 107.304 570.95 107.338C571.194 107.372 571.434 107.423 571.672 107.491L571.417 108.545C571.247 108.477 571.077 108.426 570.907 108.392C570.743 108.358 570.584 108.341 570.431 108.341C570.25 108.341 570.069 108.375 569.887 108.443C569.706 108.511 569.556 108.638 569.437 108.825C569.318 109.012 569.258 109.282 569.258 109.633V119H567.932ZM566.606 111.792V110.874H570.941V111.792H566.606ZM576.14 119.204C575.437 119.204 574.808 119.025 574.253 118.668C573.703 118.306 573.267 117.804 572.944 117.164C572.626 116.524 572.468 115.787 572.468 114.954C572.468 114.064 572.626 113.299 572.944 112.659C573.261 112.019 573.694 111.528 574.244 111.188C574.799 110.843 575.431 110.67 576.14 110.67C576.757 110.67 577.284 110.795 577.721 111.044C578.157 111.293 578.508 111.63 578.775 112.055C579.041 112.48 579.225 112.962 579.327 113.5C579.435 114.033 579.466 114.586 579.421 115.158H573.539V114.342H578.545L578.154 114.597C578.171 114.263 578.151 113.928 578.095 113.594C578.044 113.26 577.944 112.954 577.797 112.676C577.65 112.393 577.443 112.166 577.177 111.996C576.91 111.826 576.57 111.741 576.157 111.741C575.635 111.741 575.199 111.874 574.848 112.14C574.496 112.407 574.233 112.758 574.057 113.194C573.881 113.625 573.794 114.093 573.794 114.597V115.141C573.794 115.708 573.879 116.215 574.049 116.662C574.224 117.11 574.485 117.464 574.831 117.725C575.176 117.986 575.613 118.116 576.14 118.116C576.667 118.116 577.1 117.988 577.44 117.733C577.78 117.478 577.987 117.102 578.061 116.603H579.438C579.353 117.141 579.16 117.606 578.86 117.997C578.559 118.382 578.177 118.68 577.712 118.889C577.247 119.099 576.723 119.204 576.14 119.204ZM581.846 120.853L580.843 120.36C581.166 120.196 581.438 120.014 581.659 119.816C581.886 119.618 582.033 119.374 582.101 119.085C581.857 119.057 581.648 118.969 581.472 118.821C581.302 118.674 581.217 118.479 581.217 118.235C581.217 117.997 581.305 117.793 581.481 117.623C581.662 117.453 581.891 117.368 582.169 117.368C582.52 117.368 582.804 117.495 583.019 117.751C583.234 118.005 583.342 118.309 583.342 118.66C583.342 119.074 583.215 119.479 582.96 119.876C582.71 120.278 582.339 120.604 581.846 120.853ZM601.061 119V114.223C601.061 113.447 600.874 112.857 600.5 112.455C600.132 112.047 599.633 111.843 599.004 111.843C598.267 111.843 597.703 112.129 597.312 112.701C596.921 113.268 596.726 114.053 596.726 115.056H596.114C596.114 114.325 596.185 113.685 596.326 113.135C596.474 112.585 596.686 112.129 596.964 111.766C597.242 111.398 597.579 111.123 597.975 110.942C598.372 110.761 598.823 110.67 599.327 110.67C599.967 110.67 600.514 110.814 600.967 111.103C601.426 111.387 601.778 111.795 602.021 112.327C602.265 112.86 602.387 113.492 602.387 114.223V119H601.061ZM589.637 119V110.874H590.776L590.929 112.506C591.184 111.917 591.541 111.463 592 111.146C592.465 110.829 593.02 110.67 593.666 110.67C594.306 110.67 594.853 110.814 595.306 111.103C595.765 111.387 596.117 111.795 596.36 112.327C596.604 112.86 596.726 113.492 596.726 114.223V119H595.417V114.223C595.417 113.447 595.23 112.857 594.856 112.455C594.488 112.047 593.983 111.843 593.343 111.843C592.856 111.843 592.433 111.976 592.076 112.242C591.719 112.509 591.445 112.891 591.252 113.39C591.059 113.883 590.963 114.472 590.963 115.158V119H589.637ZM610.573 119L610.403 117.215V113.73C610.403 112.999 610.247 112.475 609.936 112.157C609.624 111.834 609.157 111.673 608.533 111.673C608.182 111.673 607.862 111.724 607.573 111.826C607.289 111.928 607.063 112.087 606.893 112.302C606.728 112.512 606.646 112.784 606.646 113.118H605.167C605.167 112.529 605.312 112.055 605.601 111.698C605.89 111.336 606.286 111.075 606.791 110.916C607.301 110.752 607.882 110.67 608.533 110.67C609.157 110.67 609.709 110.775 610.191 110.984C610.672 111.194 611.049 111.528 611.321 111.987C611.593 112.441 611.729 113.033 611.729 113.764V119H610.573ZM607.802 119.204C607.134 119.204 606.581 119.085 606.145 118.847C605.708 118.609 605.383 118.3 605.167 117.92C604.952 117.541 604.844 117.141 604.844 116.722C604.844 116.172 604.98 115.725 605.252 115.379C605.53 115.033 605.907 114.781 606.383 114.622C606.859 114.458 607.394 114.376 607.989 114.376C608.414 114.376 608.839 114.418 609.264 114.503C609.695 114.588 610.114 114.705 610.522 114.852V115.685C610.182 115.549 609.797 115.441 609.366 115.362C608.941 115.283 608.55 115.243 608.193 115.243C607.649 115.243 607.19 115.356 606.816 115.583C606.442 115.804 606.255 116.184 606.255 116.722C606.255 117.119 606.397 117.459 606.68 117.742C606.969 118.025 607.428 118.167 608.057 118.167C608.499 118.167 608.896 118.065 609.247 117.861C609.604 117.651 609.885 117.391 610.089 117.079C610.298 116.767 610.403 116.456 610.403 116.144H610.726C610.726 116.688 610.607 117.192 610.369 117.657C610.137 118.122 609.803 118.496 609.366 118.779C608.93 119.062 608.409 119.204 607.802 119.204ZM617.812 119.204C617.154 119.204 616.551 119.028 616.001 118.677C615.451 118.32 615.012 117.821 614.684 117.181C614.355 116.535 614.191 115.776 614.191 114.903C614.191 114.036 614.352 113.285 614.675 112.65C614.998 112.016 615.426 111.528 615.959 111.188C616.497 110.843 617.086 110.67 617.727 110.67C618.322 110.67 618.843 110.814 619.291 111.103C619.744 111.392 620.095 111.809 620.345 112.353C620.594 112.897 620.719 113.554 620.719 114.325H620.209C620.209 113.787 620.101 113.333 619.886 112.965C619.676 112.597 619.401 112.319 619.061 112.132C618.721 111.939 618.356 111.843 617.965 111.843C617.523 111.843 617.117 111.968 616.749 112.217C616.386 112.461 616.095 112.812 615.874 113.271C615.658 113.724 615.551 114.268 615.551 114.903C615.551 115.549 615.658 116.104 615.874 116.569C616.095 117.034 616.386 117.391 616.749 117.64C617.117 117.889 617.523 118.014 617.965 118.014C618.333 118.014 618.687 117.918 619.027 117.725C619.373 117.532 619.656 117.252 619.877 116.883C620.098 116.509 620.209 116.059 620.209 115.532H620.719C620.719 116.32 620.588 116.988 620.328 117.538C620.073 118.082 619.724 118.496 619.282 118.779C618.846 119.062 618.356 119.204 617.812 119.204ZM620.43 119L620.209 117.096V107.406H621.535V119H620.43ZM627.804 119.204C627.101 119.204 626.472 119.025 625.917 118.668C625.367 118.306 624.931 117.804 624.608 117.164C624.29 116.524 624.132 115.787 624.132 114.954C624.132 114.064 624.29 113.299 624.608 112.659C624.925 112.019 625.358 111.528 625.908 111.188C626.463 110.843 627.095 110.67 627.804 110.67C628.421 110.67 628.948 110.795 629.385 111.044C629.821 111.293 630.172 111.63 630.439 112.055C630.705 112.48 630.889 112.962 630.991 113.5C631.099 114.033 631.13 114.586 631.085 115.158H625.203V114.342H630.209L629.818 114.597C629.835 114.263 629.815 113.928 629.759 113.594C629.708 113.26 629.608 112.954 629.461 112.676C629.314 112.393 629.107 112.166 628.841 111.996C628.574 111.826 628.234 111.741 627.821 111.741C627.299 111.741 626.863 111.874 626.512 112.14C626.16 112.407 625.897 112.758 625.721 113.194C625.545 113.625 625.458 114.093 625.458 114.597V115.141C625.458 115.708 625.543 116.215 625.713 116.662C625.888 117.11 626.149 117.464 626.495 117.725C626.84 117.986 627.277 118.116 627.804 118.116C628.331 118.116 628.764 117.988 629.104 117.733C629.444 117.478 629.651 117.102 629.725 116.603H631.102C631.017 117.141 630.824 117.606 630.524 117.997C630.223 118.382 629.841 118.68 629.376 118.889C628.911 119.099 628.387 119.204 627.804 119.204ZM640.247 119.204C639.805 119.204 639.409 119.119 639.057 118.949C638.706 118.779 638.428 118.524 638.224 118.184C638.02 117.844 637.918 117.419 637.918 116.909V108.613H639.227V116.875C639.227 117.714 639.618 118.133 640.4 118.133C640.633 118.133 640.856 118.107 641.072 118.056C641.293 118.005 641.539 117.929 641.811 117.827L641.998 118.779C641.709 118.904 641.42 119.006 641.131 119.085C640.848 119.164 640.553 119.204 640.247 119.204ZM636.609 111.792V110.874H641.794V111.792H636.609ZM647.081 119.204C646.35 119.204 645.698 119.043 645.126 118.72C644.559 118.396 644.112 117.918 643.783 117.283C643.454 116.648 643.29 115.866 643.29 114.937C643.29 114.002 643.454 113.22 643.783 112.591C644.112 111.956 644.559 111.477 645.126 111.154C645.698 110.831 646.35 110.67 647.081 110.67C647.806 110.67 648.452 110.831 649.019 111.154C649.591 111.477 650.039 111.956 650.362 112.591C650.691 113.22 650.855 114.002 650.855 114.937C650.855 115.866 650.691 116.648 650.362 117.283C650.039 117.918 649.591 118.396 649.019 118.72C648.452 119.043 647.806 119.204 647.081 119.204ZM647.047 118.048C647.574 118.048 648.022 117.923 648.39 117.674C648.758 117.419 649.036 117.059 649.223 116.594C649.416 116.13 649.512 115.577 649.512 114.937C649.512 113.968 649.311 113.206 648.908 112.65C648.506 112.089 647.908 111.809 647.115 111.809C646.582 111.809 646.132 111.936 645.763 112.191C645.401 112.441 645.123 112.801 644.93 113.271C644.743 113.736 644.65 114.291 644.65 114.937C644.65 115.895 644.851 116.654 645.253 117.215C645.661 117.77 646.259 118.048 647.047 118.048ZM668.895 119V114.223C668.895 113.447 668.708 112.857 668.334 112.455C667.966 112.047 667.467 111.843 666.838 111.843C666.101 111.843 665.537 112.129 665.146 112.701C664.755 113.268 664.56 114.053 664.56 115.056H663.948C663.948 114.325 664.019 113.685 664.16 113.135C664.308 112.585 664.52 112.129 664.798 111.766C665.076 111.398 665.413 111.123 665.809 110.942C666.206 110.761 666.657 110.67 667.161 110.67C667.801 110.67 668.348 110.814 668.801 111.103C669.26 111.387 669.612 111.795 669.855 112.327C670.099 112.86 670.221 113.492 670.221 114.223V119H668.895ZM657.471 119V110.874H658.61L658.763 112.506C659.018 111.917 659.375 111.463 659.834 111.146C660.299 110.829 660.854 110.67 661.5 110.67C662.14 110.67 662.687 110.814 663.14 111.103C663.599 111.387 663.951 111.795 664.194 112.327C664.438 112.86 664.56 113.492 664.56 114.223V119H663.251V114.223C663.251 113.447 663.064 112.857 662.69 112.455C662.322 112.047 661.817 111.843 661.177 111.843C660.69 111.843 660.267 111.976 659.91 112.242C659.553 112.509 659.279 112.891 659.086 113.39C658.893 113.883 658.797 114.472 658.797 115.158V119H657.471ZM676.316 119.204C675.585 119.204 674.934 119.043 674.361 118.72C673.795 118.396 673.347 117.918 673.018 117.283C672.69 116.648 672.525 115.866 672.525 114.937C672.525 114.002 672.69 113.22 673.018 112.591C673.347 111.956 673.795 111.477 674.361 111.154C674.934 110.831 675.585 110.67 676.316 110.67C677.042 110.67 677.688 110.831 678.254 111.154C678.827 111.477 679.274 111.956 679.597 112.591C679.926 113.22 680.09 114.002 680.09 114.937C680.09 115.866 679.926 116.648 679.597 117.283C679.274 117.918 678.827 118.396 678.254 118.72C677.688 119.043 677.042 119.204 676.316 119.204ZM676.282 118.048C676.809 118.048 677.257 117.923 677.625 117.674C677.994 117.419 678.271 117.059 678.458 116.594C678.651 116.13 678.747 115.577 678.747 114.937C678.747 113.968 678.546 113.206 678.144 112.65C677.741 112.089 677.144 111.809 676.35 111.809C675.818 111.809 675.367 111.936 674.999 112.191C674.636 112.441 674.358 112.801 674.166 113.271C673.979 113.736 673.885 114.291 673.885 114.937C673.885 115.895 674.086 116.654 674.489 117.215C674.897 117.77 675.495 118.048 676.282 118.048ZM681.261 110.874H682.774L685.324 117.861H685.137L687.687 110.874H689.2L685.953 119H684.508L681.261 110.874ZM694.044 119.204C693.341 119.204 692.712 119.025 692.157 118.668C691.607 118.306 691.171 117.804 690.848 117.164C690.531 116.524 690.372 115.787 690.372 114.954C690.372 114.064 690.531 113.299 690.848 112.659C691.165 112.019 691.599 111.528 692.148 111.188C692.704 110.843 693.336 110.67 694.044 110.67C694.662 110.67 695.189 110.795 695.625 111.044C696.061 111.293 696.413 111.63 696.679 112.055C696.945 112.48 697.129 112.962 697.231 113.5C697.339 114.033 697.37 114.586 697.325 115.158H691.443V114.342H696.449L696.058 114.597C696.075 114.263 696.056 113.928 695.999 113.594C695.948 113.26 695.849 112.954 695.701 112.676C695.554 112.393 695.347 112.166 695.081 111.996C694.815 111.826 694.475 111.741 694.061 111.741C693.54 111.741 693.103 111.874 692.752 112.14C692.401 112.407 692.137 112.758 691.961 113.194C691.786 113.625 691.698 114.093 691.698 114.597V115.141C691.698 115.708 691.783 116.215 691.953 116.662C692.129 117.11 692.389 117.464 692.735 117.725C693.081 117.986 693.517 118.116 694.044 118.116C694.571 118.116 695.004 117.988 695.344 117.733C695.684 117.478 695.891 117.102 695.965 116.603H697.342C697.257 117.141 697.064 117.606 696.764 117.997C696.464 118.382 696.081 118.68 695.616 118.889C695.152 119.099 694.628 119.204 694.044 119.204ZM709.02 119L708.85 117.215V113.73C708.85 112.999 708.695 112.475 708.383 112.157C708.071 111.834 707.604 111.673 706.98 111.673C706.629 111.673 706.309 111.724 706.02 111.826C705.737 111.928 705.51 112.087 705.34 112.302C705.176 112.512 705.093 112.784 705.093 113.118H703.614C703.614 112.529 703.759 112.055 704.048 111.698C704.337 111.336 704.734 111.075 705.238 110.916C705.748 110.752 706.329 110.67 706.98 110.67C707.604 110.67 708.156 110.775 708.638 110.984C709.12 111.194 709.496 111.528 709.768 111.987C710.04 112.441 710.176 113.033 710.176 113.764V119H709.02ZM706.249 119.204C705.581 119.204 705.028 119.085 704.592 118.847C704.156 118.609 703.83 118.3 703.614 117.92C703.399 117.541 703.291 117.141 703.291 116.722C703.291 116.172 703.427 115.725 703.699 115.379C703.977 115.033 704.354 114.781 704.83 114.622C705.306 114.458 705.841 114.376 706.436 114.376C706.861 114.376 707.286 114.418 707.711 114.503C708.142 114.588 708.561 114.705 708.969 114.852V115.685C708.629 115.549 708.244 115.441 707.813 115.362C707.388 115.283 706.997 115.243 706.64 115.243C706.096 115.243 705.637 115.356 705.263 115.583C704.889 115.804 704.702 116.184 704.702 116.722C704.702 117.119 704.844 117.459 705.127 117.742C705.416 118.025 705.875 118.167 706.504 118.167C706.946 118.167 707.343 118.065 707.694 117.861C708.051 117.651 708.332 117.391 708.536 117.079C708.746 116.767 708.85 116.456 708.85 116.144H709.173C709.173 116.688 709.054 117.192 708.816 117.657C708.584 118.122 708.25 118.496 707.813 118.779C707.377 119.062 706.856 119.204 706.249 119.204ZM719.132 119V114.223C719.132 113.447 718.945 112.857 718.571 112.455C718.202 112.047 717.698 111.843 717.058 111.843C716.57 111.843 716.148 111.976 715.791 112.242C715.434 112.509 715.159 112.891 714.967 113.39C714.774 113.883 714.678 114.472 714.678 115.158H714.168C714.168 114.212 714.292 113.404 714.542 112.735C714.791 112.067 715.154 111.557 715.63 111.205C716.111 110.848 716.695 110.67 717.381 110.67C718.021 110.67 718.568 110.814 719.021 111.103C719.48 111.387 719.832 111.795 720.075 112.327C720.319 112.86 720.441 113.492 720.441 114.223V119H719.132ZM713.352 119V110.874H714.491L714.678 112.744V119H713.352ZM726.519 119.204C725.861 119.204 725.258 119.028 724.708 118.677C724.158 118.32 723.719 117.821 723.391 117.181C723.062 116.535 722.898 115.776 722.898 114.903C722.898 114.036 723.059 113.285 723.382 112.65C723.705 112.016 724.133 111.528 724.666 111.188C725.204 110.843 725.793 110.67 726.434 110.67C727.029 110.67 727.55 110.814 727.998 111.103C728.451 111.392 728.802 111.809 729.052 112.353C729.301 112.897 729.426 113.554 729.426 114.325H728.916C728.916 113.787 728.808 113.333 728.593 112.965C728.383 112.597 728.108 112.319 727.768 112.132C727.428 111.939 727.063 111.843 726.672 111.843C726.23 111.843 725.824 111.968 725.456 112.217C725.093 112.461 724.802 112.812 724.581 113.271C724.365 113.724 724.258 114.268 724.258 114.903C724.258 115.549 724.365 116.104 724.581 116.569C724.802 117.034 725.093 117.391 725.456 117.64C725.824 117.889 726.23 118.014 726.672 118.014C727.04 118.014 727.394 117.918 727.734 117.725C728.08 117.532 728.363 117.252 728.584 116.883C728.805 116.509 728.916 116.059 728.916 115.532H729.426C729.426 116.32 729.295 116.988 729.035 117.538C728.78 118.082 728.431 118.496 727.989 118.779C727.553 119.062 727.063 119.204 726.519 119.204ZM729.137 119L728.916 117.096V107.406H730.242V119H729.137ZM740.596 123.182C739.763 123.182 739.04 123.063 738.428 122.825C737.816 122.593 737.34 122.278 737 121.882C736.666 121.491 736.499 121.057 736.499 120.581C736.499 119.952 736.728 119.47 737.187 119.136C737.652 118.807 738.25 118.643 738.981 118.643L739.712 119.102C739.1 119.102 738.627 119.23 738.292 119.485C737.958 119.74 737.791 120.088 737.791 120.53C737.791 120.972 738.029 121.346 738.505 121.652C738.981 121.958 739.678 122.111 740.596 122.111C741.276 122.111 741.871 122.012 742.381 121.814C742.897 121.621 743.296 121.366 743.579 121.049C743.868 120.737 744.013 120.4 744.013 120.037C744.013 119.782 743.919 119.561 743.732 119.374C743.545 119.193 743.259 119.102 742.874 119.102H739.712C739.162 119.102 738.686 119.02 738.284 118.855C737.887 118.685 737.581 118.464 737.366 118.192C737.151 117.92 737.043 117.623 737.043 117.3C737.043 116.96 737.139 116.671 737.332 116.433C737.525 116.195 737.774 116.014 738.08 115.889C738.392 115.764 738.726 115.702 739.083 115.702L739.338 116.195C739.168 116.195 738.995 116.235 738.819 116.314C738.649 116.388 738.505 116.501 738.386 116.654C738.273 116.801 738.216 116.988 738.216 117.215C738.216 117.476 738.324 117.694 738.539 117.869C738.754 118.045 739.145 118.133 739.712 118.133H742.874C743.639 118.133 744.24 118.294 744.676 118.617C745.118 118.94 745.339 119.391 745.339 119.969C745.339 120.502 745.149 121.012 744.769 121.499C744.39 121.992 743.846 122.394 743.137 122.706C742.429 123.023 741.582 123.182 740.596 123.182ZM740.834 116.62C740.211 116.62 739.647 116.495 739.142 116.246C738.644 115.997 738.247 115.648 737.952 115.2C737.663 114.753 737.519 114.234 737.519 113.645C737.519 113.05 737.663 112.529 737.952 112.081C738.247 111.633 738.644 111.288 739.142 111.044C739.647 110.795 740.211 110.67 740.834 110.67C741.44 110.67 741.99 110.795 742.483 111.044C742.982 111.288 743.378 111.633 743.673 112.081C743.968 112.529 744.115 113.05 744.115 113.645C744.115 114.234 743.968 114.753 743.673 115.2C743.378 115.648 742.982 115.997 742.483 116.246C741.99 116.495 741.44 116.62 740.834 116.62ZM740.834 115.668C741.457 115.668 741.942 115.475 742.287 115.09C742.633 114.705 742.806 114.223 742.806 113.645C742.806 113.05 742.633 112.568 742.287 112.2C741.942 111.826 741.457 111.639 740.834 111.639C740.216 111.639 739.729 111.826 739.372 112.2C739.021 112.568 738.845 113.05 738.845 113.645C738.845 114.223 739.021 114.705 739.372 115.09C739.729 115.475 740.216 115.668 740.834 115.668ZM743.503 111.962L742.874 111.707C742.874 111.231 742.967 110.814 743.154 110.458C743.341 110.095 743.608 109.814 743.953 109.616C744.299 109.412 744.71 109.31 745.186 109.31L745.084 110.619C744.574 110.619 744.183 110.729 743.911 110.95C743.639 111.166 743.503 111.503 743.503 111.962ZM747.319 119V110.857H748.645V119H747.319ZM748.237 115.328C748.237 114.297 748.336 113.441 748.534 112.761C748.732 112.075 749.021 111.565 749.401 111.231C749.786 110.891 750.254 110.721 750.804 110.721C750.985 110.721 751.149 110.735 751.297 110.763C751.45 110.786 751.603 110.823 751.756 110.874L751.671 112.183C751.512 112.132 751.339 112.089 751.152 112.055C750.965 112.016 750.798 111.996 750.651 111.996C750.169 111.996 749.781 112.135 749.486 112.412C749.191 112.684 748.976 113.07 748.84 113.568C748.71 114.067 748.645 114.654 748.645 115.328H748.237ZM756.402 119.204C755.671 119.204 755.019 119.043 754.447 118.72C753.88 118.396 753.433 117.918 753.104 117.283C752.775 116.648 752.611 115.866 752.611 114.937C752.611 114.002 752.775 113.22 753.104 112.591C753.433 111.956 753.88 111.477 754.447 111.154C755.019 110.831 755.671 110.67 756.402 110.67C757.127 110.67 757.773 110.831 758.34 111.154C758.912 111.477 759.36 111.956 759.683 112.591C760.012 113.22 760.176 114.002 760.176 114.937C760.176 115.866 760.012 116.648 759.683 117.283C759.36 117.918 758.912 118.396 758.34 118.72C757.773 119.043 757.127 119.204 756.402 119.204ZM756.368 118.048C756.895 118.048 757.343 117.923 757.711 117.674C758.079 117.419 758.357 117.059 758.544 116.594C758.737 116.13 758.833 115.577 758.833 114.937C758.833 113.968 758.632 113.206 758.23 112.65C757.827 112.089 757.229 111.809 756.436 111.809C755.903 111.809 755.453 111.936 755.085 112.191C754.722 112.441 754.444 112.801 754.252 113.271C754.065 113.736 753.971 114.291 753.971 114.937C753.971 115.895 754.172 116.654 754.575 117.215C754.983 117.77 755.58 118.048 756.368 118.048ZM761.347 110.874H762.724L764.798 117.657H764.628L766.651 111.265H767.756L769.762 117.674H769.609L771.683 110.874H773.009L770.34 119H769.048L767.076 112.999H767.28L765.325 119H764.033L761.347 110.874ZM773.869 118.209C773.869 117.943 773.963 117.714 774.15 117.521C774.337 117.328 774.572 117.232 774.855 117.232C775.139 117.232 775.38 117.328 775.578 117.521C775.776 117.714 775.875 117.943 775.875 118.209C775.875 118.476 775.776 118.7 775.578 118.881C775.38 119.062 775.139 119.153 774.855 119.153C774.572 119.153 774.337 119.062 774.15 118.881C773.963 118.694 773.869 118.47 773.869 118.209Z" fill="white"/>
<path d="M301.245 13V5.464H304.065C304.617 5.464 305.075 5.556 305.439 5.74C305.803 5.92 306.075 6.16 306.255 6.46C306.435 6.756 306.525 7.08 306.525 7.432C306.525 7.864 306.405 8.24 306.165 8.56C305.929 8.876 305.573 9.092 305.097 9.208C305.405 9.256 305.675 9.366 305.907 9.538C306.143 9.706 306.327 9.914 306.459 10.162C306.591 10.406 306.657 10.668 306.657 10.948C306.657 11.204 306.613 11.454 306.525 11.698C306.441 11.942 306.299 12.162 306.099 12.358C305.899 12.554 305.633 12.71 305.301 12.826C304.969 12.942 304.557 13 304.065 13H301.245ZM302.181 12.184H304.053C304.625 12.184 305.035 12.064 305.283 11.824C305.535 11.584 305.661 11.276 305.661 10.9C305.661 10.52 305.525 10.216 305.253 9.988C304.981 9.756 304.581 9.64 304.053 9.64H302.181V12.184ZM302.181 6.268V8.836H304.029C304.497 8.836 304.869 8.722 305.145 8.494C305.425 8.262 305.565 7.936 305.565 7.516C305.565 7.124 305.429 6.818 305.157 6.598C304.889 6.378 304.517 6.268 304.041 6.268H302.181ZM310.686 13V5.464H315.33V6.268H311.622V8.8H315.114V9.604H311.622V12.184H315.33V13H310.686ZM321.849 13.144C321.345 13.144 320.883 13.054 320.463 12.874C320.043 12.69 319.705 12.42 319.449 12.064C319.193 11.708 319.061 11.268 319.053 10.744H319.965C319.965 11.096 320.051 11.386 320.223 11.614C320.395 11.838 320.623 12.006 320.907 12.118C321.191 12.226 321.501 12.28 321.837 12.28C322.201 12.28 322.517 12.222 322.785 12.106C323.053 11.99 323.259 11.838 323.403 11.65C323.551 11.458 323.625 11.248 323.625 11.02C323.625 10.7 323.527 10.442 323.331 10.246C323.135 10.046 322.845 9.884 322.461 9.76L321.129 9.292C320.505 9.068 320.033 8.812 319.713 8.524C319.393 8.236 319.233 7.832 319.233 7.312C319.233 6.728 319.457 6.252 319.905 5.884C320.357 5.516 320.997 5.332 321.825 5.332C322.593 5.332 323.193 5.51 323.625 5.866C324.057 6.218 324.305 6.692 324.369 7.288H323.445C323.385 6.94 323.221 6.67 322.953 6.478C322.689 6.282 322.313 6.184 321.825 6.184C321.329 6.184 320.943 6.294 320.667 6.514C320.391 6.734 320.253 7.012 320.253 7.348C320.253 7.624 320.339 7.844 320.511 8.008C320.687 8.168 320.961 8.312 321.333 8.44L322.893 8.98C323.433 9.16 323.859 9.412 324.171 9.736C324.487 10.06 324.645 10.48 324.645 10.996C324.645 11.396 324.537 11.758 324.321 12.082C324.109 12.406 323.795 12.664 323.379 12.856C322.963 13.048 322.453 13.144 321.849 13.144ZM327.551 6.268V5.464H333.419V6.268H330.737L330.947 6.052V13H330.011V6.052L330.221 6.268H327.551ZM341.526 13V5.464H343.95C344.778 5.464 345.41 5.674 345.846 6.094C346.286 6.51 346.506 7.076 346.506 7.792C346.506 8.5 346.286 9.062 345.846 9.478C345.41 9.89 344.778 10.096 343.95 10.096H342.474V13H341.526ZM342.474 9.28H343.95C344.474 9.28 344.87 9.146 345.138 8.878C345.41 8.61 345.546 8.248 345.546 7.792C345.546 7.328 345.41 6.958 345.138 6.682C344.87 6.406 344.474 6.268 343.95 6.268H342.474V9.28ZM351.13 5.464V12.184H354.49V13H350.194V5.464H351.13ZM356.908 13L359.5 5.464H360.64L363.172 13H362.188L361.552 11.068H358.552L357.892 13H356.908ZM358.792 10.336H361.312L360.052 6.604L358.792 10.336ZM369.314 13.144C368.65 13.144 368.078 12.978 367.598 12.646C367.118 12.31 366.748 11.846 366.488 11.254C366.228 10.658 366.098 9.968 366.098 9.184C366.098 8.348 366.238 7.644 366.518 7.072C366.802 6.5 367.186 6.068 367.67 5.776C368.158 5.48 368.706 5.332 369.314 5.332C370.118 5.332 370.764 5.534 371.252 5.938C371.744 6.338 372.082 6.86 372.266 7.504L371.258 7.708C371.102 7.24 370.852 6.868 370.508 6.592C370.168 6.312 369.77 6.172 369.314 6.172C368.918 6.172 368.552 6.286 368.216 6.514C367.884 6.738 367.616 7.074 367.412 7.522C367.208 7.97 367.106 8.524 367.106 9.184C367.106 9.784 367.186 10.318 367.346 10.786C367.51 11.254 367.754 11.622 368.078 11.89C368.406 12.158 368.818 12.292 369.314 12.292C369.91 12.292 370.382 12.132 370.73 11.812C371.082 11.492 371.258 11.072 371.258 10.552H372.278C372.278 11.092 372.154 11.556 371.906 11.944C371.658 12.328 371.31 12.624 370.862 12.832C370.418 13.04 369.902 13.144 369.314 13.144ZM376.046 13V5.464H380.69V6.268H376.982V8.8H380.474V9.604H376.982V12.184H380.69V13H376.046ZM388.504 6.268V5.464H394.372V6.268H391.69L391.9 6.052V13H390.964V6.052L391.174 6.268H388.504ZM400.319 13.144C399.695 13.144 399.137 13 398.645 12.712C398.153 12.424 397.765 11.992 397.481 11.416C397.197 10.836 397.055 10.112 397.055 9.244C397.055 8.364 397.197 7.636 397.481 7.06C397.765 6.48 398.153 6.048 398.645 5.764C399.137 5.476 399.695 5.332 400.319 5.332C400.943 5.332 401.501 5.476 401.993 5.764C402.485 6.052 402.873 6.486 403.157 7.066C403.441 7.646 403.583 8.372 403.583 9.244C403.583 10.12 403.441 10.848 403.157 11.428C402.873 12.004 402.485 12.434 401.993 12.718C401.501 13.002 400.943 13.144 400.319 13.144ZM400.319 12.28C401.027 12.28 401.585 12.022 401.993 11.506C402.405 10.99 402.611 10.232 402.611 9.232C402.611 8.252 402.405 7.498 401.993 6.97C401.585 6.438 401.027 6.172 400.319 6.172C399.619 6.172 399.061 6.438 398.645 6.97C398.233 7.502 398.027 8.26 398.027 9.244C398.027 10.24 398.233 10.996 398.645 11.512C399.061 12.024 399.619 12.28 400.319 12.28ZM412.249 13V5.464H415.069C415.621 5.464 416.079 5.556 416.443 5.74C416.807 5.92 417.079 6.16 417.259 6.46C417.439 6.756 417.529 7.08 417.529 7.432C417.529 7.864 417.409 8.24 417.169 8.56C416.933 8.876 416.577 9.092 416.101 9.208C416.409 9.256 416.679 9.366 416.911 9.538C417.147 9.706 417.331 9.914 417.463 10.162C417.595 10.406 417.661 10.668 417.661 10.948C417.661 11.204 417.617 11.454 417.529 11.698C417.445 11.942 417.303 12.162 417.103 12.358C416.903 12.554 416.637 12.71 416.305 12.826C415.973 12.942 415.561 13 415.069 13H412.249ZM413.185 12.184H415.057C415.629 12.184 416.039 12.064 416.287 11.824C416.539 11.584 416.665 11.276 416.665 10.9C416.665 10.52 416.529 10.216 416.257 9.988C415.985 9.756 415.585 9.64 415.057 9.64H413.185V12.184ZM413.185 6.268V8.836H415.033C415.501 8.836 415.873 8.722 416.149 8.494C416.429 8.262 416.569 7.936 416.569 7.516C416.569 7.124 416.433 6.818 416.161 6.598C415.893 6.378 415.521 6.268 415.045 6.268H413.185ZM421.534 5.464H422.47V10.276C422.47 10.984 422.648 11.496 423.004 11.812C423.36 12.124 423.826 12.28 424.402 12.28C424.974 12.28 425.436 12.124 425.788 11.812C426.144 11.496 426.322 10.984 426.322 10.276V5.464H427.258V10.276C427.258 10.908 427.14 11.438 426.904 11.866C426.672 12.29 426.342 12.61 425.914 12.826C425.486 13.038 424.982 13.144 424.402 13.144C423.822 13.144 423.316 13.038 422.884 12.826C422.456 12.61 422.124 12.29 421.888 11.866C421.652 11.438 421.534 10.908 421.534 10.276V5.464ZM430.438 5.464H431.566L433.726 9.124H433.486L435.682 5.464H436.798L434.074 9.904V13H433.126V9.904L430.438 5.464ZM444.976 5.464H447.184C447.944 5.464 448.604 5.62 449.164 5.932C449.724 6.24 450.158 6.676 450.466 7.24C450.774 7.804 450.928 8.468 450.928 9.232C450.928 9.988 450.774 10.648 450.466 11.212C450.158 11.776 449.724 12.216 449.164 12.532C448.604 12.844 447.944 13 447.184 13H444.976V5.464ZM445.912 6.292V12.184H447.184C447.752 12.184 448.24 12.056 448.648 11.8C449.06 11.544 449.376 11.194 449.596 10.75C449.82 10.302 449.932 9.796 449.932 9.232C449.932 8.664 449.82 8.16 449.596 7.72C449.376 7.276 449.06 6.928 448.648 6.676C448.24 6.42 447.752 6.292 447.184 6.292H445.912ZM454.886 13V5.464H459.53V6.268H455.822V8.8H459.314V9.604H455.822V12.184H459.53V13H454.886ZM466.048 13.144C465.544 13.144 465.082 13.054 464.662 12.874C464.242 12.69 463.904 12.42 463.648 12.064C463.392 11.708 463.26 11.268 463.252 10.744H464.164C464.164 11.096 464.25 11.386 464.422 11.614C464.594 11.838 464.822 12.006 465.106 12.118C465.39 12.226 465.7 12.28 466.036 12.28C466.4 12.28 466.716 12.222 466.984 12.106C467.252 11.99 467.458 11.838 467.602 11.65C467.75 11.458 467.824 11.248 467.824 11.02C467.824 10.7 467.726 10.442 467.53 10.246C467.334 10.046 467.044 9.884 466.66 9.76L465.328 9.292C464.704 9.068 464.232 8.812 463.912 8.524C463.592 8.236 463.432 7.832 463.432 7.312C463.432 6.728 463.656 6.252 464.104 5.884C464.556 5.516 465.196 5.332 466.024 5.332C466.792 5.332 467.392 5.51 467.824 5.866C468.256 6.218 468.504 6.692 468.568 7.288H467.644C467.584 6.94 467.42 6.67 467.152 6.478C466.888 6.282 466.512 6.184 466.024 6.184C465.528 6.184 465.142 6.294 464.866 6.514C464.59 6.734 464.452 7.012 464.452 7.348C464.452 7.624 464.538 7.844 464.71 8.008C464.886 8.168 465.16 8.312 465.532 8.44L467.092 8.98C467.632 9.16 468.058 9.412 468.37 9.736C468.686 10.06 468.844 10.48 468.844 10.996C468.844 11.396 468.736 11.758 468.52 12.082C468.308 12.406 467.994 12.664 467.578 12.856C467.162 13.048 466.652 13.144 466.048 13.144ZM472.89 13V5.464H473.826V13H472.89ZM480.905 13.144C480.305 13.144 479.759 12.988 479.267 12.676C478.775 12.364 478.383 11.922 478.091 11.35C477.799 10.778 477.653 10.1 477.653 9.316C477.653 8.664 477.747 8.09 477.935 7.594C478.123 7.098 478.381 6.682 478.709 6.346C479.037 6.01 479.413 5.758 479.837 5.59C480.265 5.418 480.717 5.332 481.193 5.332C481.781 5.332 482.297 5.454 482.741 5.698C483.185 5.938 483.565 6.32 483.881 6.844L482.993 7.156C482.725 6.824 482.437 6.58 482.129 6.424C481.825 6.264 481.501 6.184 481.157 6.184C480.705 6.184 480.289 6.31 479.909 6.562C479.529 6.814 479.223 7.174 478.991 7.642C478.763 8.11 478.649 8.668 478.649 9.316C478.649 9.892 478.743 10.404 478.931 10.852C479.119 11.296 479.385 11.646 479.729 11.902C480.077 12.154 480.489 12.28 480.965 12.28C481.329 12.28 481.655 12.196 481.943 12.028C482.235 11.86 482.465 11.608 482.633 11.272C482.801 10.932 482.885 10.504 482.885 9.988H483.173C483.173 10.628 483.097 11.184 482.945 11.656C482.793 12.128 482.549 12.494 482.213 12.754C481.881 13.014 481.445 13.144 480.905 13.144ZM483.053 13L482.885 11.224V9.964L480.989 9.904V9.268H483.797V13H483.053ZM487.964 5.464H489.08L492.908 11.668H492.824V5.464H493.76V13H492.716L488.756 6.592H488.9V13H487.964V5.464Z" fill="white"/>
<path d="M279.663 74.564C277.062 74.564 274.822 73.9138 272.942 72.6135C271.062 71.2975 269.613 69.4802 268.594 67.1615C267.576 64.8272 267.067 62.1247 267.067 59.054C267.067 55.7797 267.615 53.0223 268.712 50.782C269.824 48.5417 271.328 46.8497 273.224 45.706C275.135 44.5467 277.282 43.967 279.663 43.967C282.812 43.967 285.342 44.7582 287.253 46.3405C289.18 47.9072 290.504 49.9517 291.225 52.474L287.277 53.273C286.666 51.44 285.687 49.983 284.339 48.902C283.008 47.8053 281.449 47.257 279.663 47.257C278.112 47.257 276.678 47.7035 275.362 48.5965C274.062 49.4738 273.012 50.7898 272.213 52.5445C271.414 54.2992 271.015 56.469 271.015 59.054C271.015 61.404 271.328 63.4955 271.955 65.3285C272.597 67.1615 273.553 68.6028 274.822 69.6525C276.107 70.7022 277.72 71.227 279.663 71.227C281.997 71.227 283.846 70.6003 285.209 69.347C286.588 68.0937 287.277 66.4487 287.277 64.412H291.272C291.272 66.527 290.786 68.3443 289.815 69.864C288.844 71.368 287.481 72.5273 285.726 73.342C283.987 74.1567 281.966 74.564 279.663 74.564ZM306.372 74.564C304.351 74.564 302.549 74.1175 300.967 73.2245C299.4 72.3315 298.163 71.0077 297.254 69.253C296.345 67.4983 295.891 65.3363 295.891 62.767C295.891 60.182 296.345 58.02 297.254 56.281C298.163 54.5263 299.4 53.2025 300.967 52.3095C302.549 51.4165 304.351 50.97 306.372 50.97C308.377 50.97 310.163 51.4165 311.73 52.3095C313.312 53.2025 314.55 54.5263 315.443 56.281C316.352 58.02 316.806 60.182 316.806 62.767C316.806 65.3363 316.352 67.4983 315.443 69.253C314.55 71.0077 313.312 72.3315 311.73 73.2245C310.163 74.1175 308.377 74.564 306.372 74.564ZM306.278 71.368C307.735 71.368 308.973 71.0233 309.991 70.334C311.009 69.629 311.777 68.6342 312.294 67.3495C312.827 66.0648 313.093 64.5373 313.093 62.767C313.093 60.088 312.537 57.9808 311.425 56.4455C310.312 54.8945 308.659 54.119 306.466 54.119C304.993 54.119 303.748 54.4715 302.73 55.1765C301.727 55.8658 300.959 56.8607 300.427 58.161C299.91 59.4457 299.651 60.981 299.651 62.767C299.651 65.4147 300.207 67.514 301.32 69.065C302.448 70.6003 304.1 71.368 306.278 71.368ZM325.166 74V48.056C325.166 46.5677 325.448 45.3535 326.012 44.4135C326.592 43.4578 327.36 42.7528 328.315 42.2985C329.287 41.8442 330.368 41.617 331.558 41.617C332.201 41.617 332.851 41.664 333.509 41.758C334.182 41.852 334.848 41.993 335.506 42.181L334.801 45.095C334.331 44.907 333.861 44.766 333.391 44.672C332.937 44.578 332.498 44.531 332.075 44.531C331.574 44.531 331.073 44.625 330.571 44.813C330.07 45.001 329.655 45.3535 329.326 45.8705C328.997 46.3875 328.832 47.1317 328.832 48.103V74H325.166ZM321.5 54.072V51.534H333.485V54.072H321.5ZM341.277 74V48.056C341.277 46.5677 341.559 45.3535 342.123 44.4135C342.702 43.4578 343.47 42.7528 344.426 42.2985C345.397 41.8442 346.478 41.617 347.669 41.617C348.311 41.617 348.961 41.664 349.619 41.758C350.293 41.852 350.959 41.993 351.617 42.181L350.912 45.095C350.442 44.907 349.972 44.766 349.502 44.672C349.047 44.578 348.609 44.531 348.186 44.531C347.684 44.531 347.183 44.625 346.682 44.813C346.18 45.001 345.765 45.3535 345.436 45.8705C345.107 46.3875 344.943 47.1317 344.943 48.103V74H341.277ZM337.611 54.072V51.534H349.596V54.072H337.611ZM363.967 74.564C362.024 74.564 360.285 74.0705 358.75 73.0835C357.23 72.0808 356.024 70.6943 355.131 68.924C354.254 67.1537 353.815 65.117 353.815 62.814C353.815 60.3543 354.254 58.2393 355.131 56.469C356.008 54.6987 357.207 53.3435 358.726 52.4035C360.262 51.4478 362.009 50.97 363.967 50.97C365.675 50.97 367.132 51.3147 368.338 52.004C369.544 52.6933 370.516 53.6255 371.252 54.8005C371.988 55.9755 372.497 57.3072 372.779 58.7955C373.077 60.2682 373.163 61.7957 373.038 63.378H356.776V61.122H370.617L369.536 61.827C369.583 60.9027 369.529 59.9783 369.372 59.054C369.231 58.1297 368.957 57.2837 368.549 56.516C368.142 55.7327 367.57 55.106 366.834 54.636C366.098 54.166 365.158 53.931 364.014 53.931C362.573 53.931 361.366 54.2992 360.395 55.0355C359.424 55.7718 358.695 56.7432 358.209 57.9495C357.724 59.1402 357.481 60.4327 357.481 61.827V63.331C357.481 64.8977 357.716 66.2998 358.186 67.5375C358.672 68.7752 359.392 69.7543 360.348 70.475C361.304 71.1957 362.51 71.556 363.967 71.556C365.424 71.556 366.622 71.2035 367.562 70.4985C368.502 69.7935 369.074 68.7517 369.278 67.373H373.085C372.85 68.8613 372.317 70.146 371.487 71.227C370.657 72.2923 369.599 73.1148 368.314 73.6945C367.03 74.2742 365.581 74.564 363.967 74.564ZM388.11 74.564C386.167 74.564 384.428 74.0705 382.893 73.0835C381.373 72.0808 380.167 70.6943 379.274 68.924C378.396 67.1537 377.958 65.117 377.958 62.814C377.958 60.3543 378.396 58.2393 379.274 56.469C380.151 54.6987 381.349 53.3435 382.869 52.4035C384.404 51.4478 386.151 50.97 388.11 50.97C389.817 50.97 391.274 51.3147 392.481 52.004C393.687 52.6933 394.658 53.6255 395.395 54.8005C396.131 55.9755 396.64 57.3072 396.922 58.7955C397.22 60.2682 397.306 61.7957 397.181 63.378H380.919V61.122H394.76L393.679 61.827C393.726 60.9027 393.671 59.9783 393.515 59.054C393.374 58.1297 393.099 57.2837 392.692 56.516C392.285 55.7327 391.713 55.106 390.977 54.636C390.24 54.166 389.3 53.931 388.157 53.931C386.715 53.931 385.509 54.2992 384.538 55.0355C383.566 55.7718 382.838 56.7432 382.352 57.9495C381.866 59.1402 381.624 60.4327 381.624 61.827V63.331C381.624 64.8977 381.859 66.2998 382.329 67.5375C382.814 68.7752 383.535 69.7543 384.491 70.475C385.446 71.1957 386.653 71.556 388.11 71.556C389.567 71.556 390.765 71.2035 391.705 70.4985C392.645 69.7935 393.217 68.7517 393.421 67.373H397.228C396.993 68.8613 396.46 70.146 395.63 71.227C394.799 72.2923 393.742 73.1148 392.457 73.6945C391.172 74.2742 389.723 74.564 388.11 74.564ZM415.603 44.484H420.867L431.019 64.882H430.643L440.795 44.484H445.918V74H442.205V48.291H442.863L432.053 70.287H429.609L418.846 48.432H419.269V74H415.603V44.484ZM470.672 51.487H474.338V74H470.672V51.487ZM454.739 51.487H458.405V65.493C458.405 67.373 458.86 68.7987 459.768 69.77C460.693 70.7413 462.009 71.227 463.716 71.227C465.126 71.227 466.348 70.851 467.382 70.099C468.432 69.347 469.239 68.313 469.803 66.997C470.383 65.6653 470.672 64.1457 470.672 62.438H472.035C472.035 64.9603 471.667 67.1145 470.931 68.9005C470.21 70.6865 469.184 72.0573 467.852 73.013C466.536 73.953 464.985 74.423 463.199 74.423C461.507 74.423 460.027 74.1097 458.758 73.483C457.489 72.8563 456.502 71.9085 455.797 70.6395C455.092 69.3548 454.739 67.7333 454.739 65.775V51.487ZM491.797 85.562C489.494 85.562 487.497 85.233 485.805 84.575C484.113 83.9327 482.797 83.0632 481.857 81.9665C480.933 80.8855 480.47 79.687 480.47 78.371C480.47 76.632 481.105 75.3003 482.374 74.376C483.659 73.4673 485.311 73.013 487.332 73.013L489.353 74.282C487.661 74.282 486.353 74.6345 485.429 75.3395C484.505 76.0445 484.042 77.008 484.042 78.23C484.042 79.452 484.7 80.486 486.016 81.332C487.332 82.178 489.259 82.601 491.797 82.601C493.677 82.601 495.322 82.3268 496.732 81.7785C498.158 81.2458 499.263 80.5408 500.046 79.6635C500.845 78.8018 501.244 77.8697 501.244 76.867C501.244 76.162 500.986 75.551 500.469 75.034C499.952 74.5327 499.161 74.282 498.095 74.282H489.353C487.834 74.282 486.518 74.0548 485.405 73.6005C484.309 73.1305 483.463 72.5195 482.867 71.7675C482.272 71.0155 481.974 70.193 481.974 69.3C481.974 68.36 482.241 67.561 482.773 66.903C483.306 66.245 483.995 65.7437 484.841 65.399C485.703 65.0543 486.627 64.882 487.614 64.882L488.319 66.245C487.849 66.245 487.372 66.3547 486.886 66.574C486.416 66.7777 486.016 67.091 485.687 67.514C485.374 67.9213 485.217 68.4383 485.217 69.065C485.217 69.7857 485.515 70.3888 486.11 70.8745C486.706 71.3602 487.787 71.603 489.353 71.603H498.095C500.21 71.603 501.871 72.0495 503.077 72.9425C504.299 73.8355 504.91 75.081 504.91 76.679C504.91 78.1517 504.386 79.5617 503.336 80.909C502.286 82.272 500.782 83.3843 498.824 84.246C496.866 85.1233 494.523 85.562 491.797 85.562ZM492.455 67.42C490.732 67.42 489.173 67.0753 487.779 66.386C486.4 65.6967 485.304 64.7332 484.489 63.4955C483.69 62.2578 483.29 60.8243 483.29 59.195C483.29 57.55 483.69 56.1087 484.489 54.871C485.304 53.6333 486.4 52.6777 487.779 52.004C489.173 51.3147 490.732 50.97 492.455 50.97C494.132 50.97 495.651 51.3147 497.014 52.004C498.393 52.6777 499.49 53.6333 500.304 54.871C501.119 56.1087 501.526 57.55 501.526 59.195C501.526 60.8243 501.119 62.2578 500.304 63.4955C499.49 64.7332 498.393 65.6967 497.014 66.386C495.651 67.0753 494.132 67.42 492.455 67.42ZM492.455 64.788C494.179 64.788 495.518 64.2553 496.474 63.19C497.43 62.1247 497.907 60.793 497.907 59.195C497.907 57.55 497.43 56.2183 496.474 55.2C495.518 54.166 494.179 53.649 492.455 53.649C490.748 53.649 489.4 54.166 488.413 55.2C487.442 56.2183 486.956 57.55 486.956 59.195C486.956 60.793 487.442 62.1247 488.413 63.19C489.4 64.2553 490.748 64.788 492.455 64.788ZM499.834 54.542L498.095 53.837C498.095 52.521 498.354 51.3695 498.871 50.3825C499.388 49.3798 500.124 48.6043 501.08 48.056C502.036 47.492 503.171 47.21 504.487 47.21L504.205 50.829C502.795 50.829 501.714 51.1345 500.962 51.7455C500.21 52.3408 499.834 53.273 499.834 54.542ZM518.468 74.564C516.29 74.564 514.473 74.2585 513.016 73.6475C511.559 73.0208 510.454 72.167 509.702 71.086C508.95 69.9893 508.551 68.736 508.504 67.326H512.029C512.107 68.7517 512.679 69.8248 513.744 70.5455C514.825 71.2505 516.29 71.603 518.139 71.603C519.11 71.603 520.003 71.4463 520.818 71.133C521.632 70.8197 522.283 70.3888 522.768 69.8405C523.254 69.2922 523.497 68.6733 523.497 67.984C523.497 67.1067 523.176 66.4173 522.533 65.916C521.891 65.4147 520.865 64.976 519.455 64.6L515.084 63.19C513.188 62.5947 511.731 61.78 510.713 60.746C509.71 59.6963 509.209 58.443 509.209 56.986C509.209 55.1687 510.008 53.7117 511.606 52.615C513.204 51.5183 515.303 50.97 517.904 50.97C520.661 50.97 522.8 51.534 524.319 52.662C525.839 53.79 526.63 55.2 526.693 56.892H523.074C522.933 55.905 522.431 55.1608 521.57 54.6595C520.708 54.1425 519.486 53.884 517.904 53.884C516.384 53.884 515.193 54.2287 514.332 54.918C513.486 55.5917 513.063 56.3437 513.063 57.174C513.063 58.725 514.394 59.8687 517.058 60.605L521.523 62.109C523.45 62.6887 524.922 63.4485 525.941 64.3885C526.975 65.3285 527.492 66.527 527.492 67.984C527.492 69.112 527.124 70.1773 526.387 71.18C525.651 72.1827 524.609 72.9973 523.262 73.624C521.914 74.2507 520.316 74.564 518.468 74.564Z" fill="white"/>
</svg>
